<svg width="1073" height="302" viewBox="0 0 1073 302" fill="none" xmlns="http://www.w3.org/2000/svg">
<path d="M376.896 188.672C373.504 188.672 370.528 188.064 367.968 186.848C365.408 185.6 363.44 183.856 362.064 181.616C360.688 179.376 360 176.8 360 173.888C360 170.048 360.88 166.592 362.64 163.52C364.432 160.448 366.928 158.048 370.128 156.32C373.328 154.592 376.976 153.728 381.072 153.728C384.176 153.728 386.928 154.288 389.328 155.408C391.728 156.496 393.52 158.048 394.704 160.064L387.84 165.536C386.208 162.912 383.744 161.6 380.448 161.6C378.304 161.6 376.416 162.112 374.784 163.136C373.152 164.128 371.872 165.52 370.944 167.312C370.048 169.072 369.6 171.056 369.6 173.264C369.6 175.536 370.336 177.36 371.808 178.736C373.28 180.112 375.28 180.8 377.808 180.8C381.008 180.8 383.744 179.504 386.016 176.912L391.632 182.432C389.808 184.64 387.68 186.24 385.248 187.232C382.816 188.192 380.032 188.672 376.896 188.672ZM408.657 188.432C405.905 188.432 403.505 187.952 401.457 186.992C399.409 186 397.825 184.608 396.705 182.816C395.585 181.024 395.025 178.944 395.025 176.576C395.025 173.728 395.713 171.168 397.089 168.896C398.465 166.624 400.369 164.832 402.801 163.52C405.233 162.208 407.969 161.552 411.009 161.552C413.761 161.552 416.161 162.048 418.209 163.04C420.257 164 421.841 165.376 422.961 167.168C424.081 168.928 424.641 170.992 424.641 173.36C424.641 176.208 423.953 178.784 422.577 181.088C421.201 183.36 419.297 185.152 416.865 186.464C414.465 187.776 411.729 188.432 408.657 188.432ZM409.185 181.088C411.009 181.088 412.497 180.416 413.649 179.072C414.801 177.728 415.377 175.984 415.377 173.84C415.377 172.304 414.945 171.088 414.081 170.192C413.217 169.296 412.017 168.848 410.481 168.848C408.657 168.848 407.169 169.52 406.017 170.864C404.865 172.208 404.289 173.968 404.289 176.144C404.289 177.68 404.721 178.896 405.585 179.792C406.449 180.656 407.649 181.088 409.185 181.088ZM466.018 161.552C468.77 161.552 470.978 162.32 472.642 163.856C474.306 165.392 475.138 167.568 475.138 170.384C475.138 171.44 475.026 172.512 474.802 173.6L471.97 188H462.85L465.538 174.56C465.666 173.952 465.73 173.344 465.73 172.736C465.73 171.584 465.442 170.72 464.866 170.144C464.322 169.568 463.522 169.28 462.466 169.28C459.554 169.28 457.714 171.152 456.946 174.896L454.306 188H445.186L447.922 174.56C448.05 174.016 448.114 173.424 448.114 172.784C448.114 171.632 447.826 170.768 447.25 170.192C446.706 169.584 445.906 169.28 444.85 169.28C441.906 169.28 440.05 171.184 439.282 174.992L436.69 188H427.57L432.754 161.984H441.394L440.866 164.624C443.01 162.576 445.602 161.552 448.642 161.552C450.37 161.552 451.922 161.92 453.298 162.656C454.674 163.36 455.73 164.4 456.466 165.776C457.682 164.4 459.09 163.36 460.69 162.656C462.322 161.92 464.098 161.552 466.018 161.552ZM517.615 161.552C520.367 161.552 522.575 162.32 524.239 163.856C525.903 165.392 526.735 167.568 526.735 170.384C526.735 171.44 526.623 172.512 526.399 173.6L523.567 188H514.447L517.135 174.56C517.263 173.952 517.327 173.344 517.327 172.736C517.327 171.584 517.039 170.72 516.463 170.144C515.919 169.568 515.119 169.28 514.063 169.28C511.151 169.28 509.311 171.152 508.543 174.896L505.903 188H496.783L499.519 174.56C499.647 174.016 499.711 173.424 499.711 172.784C499.711 171.632 499.423 170.768 498.847 170.192C498.303 169.584 497.503 169.28 496.447 169.28C493.503 169.28 491.647 171.184 490.879 174.992L488.287 188H479.167L484.351 161.984H492.991L492.463 164.624C494.607 162.576 497.199 161.552 500.239 161.552C501.967 161.552 503.519 161.92 504.895 162.656C506.271 163.36 507.327 164.4 508.063 165.776C509.279 164.4 510.687 163.36 512.287 162.656C513.919 161.92 515.695 161.552 517.615 161.552ZM535.947 161.984H545.019L539.835 188H530.763L535.947 161.984ZM541.755 159.104C540.187 159.104 538.923 158.672 537.963 157.808C537.003 156.944 536.523 155.872 536.523 154.592C536.523 153.088 537.051 151.856 538.107 150.896C539.195 149.904 540.619 149.408 542.379 149.408C543.979 149.408 545.259 149.824 546.219 150.656C547.179 151.456 547.659 152.496 547.659 153.776C547.659 155.344 547.115 156.624 546.027 157.616C544.939 158.608 543.515 159.104 541.755 159.104ZM557.332 188.432C555.092 188.432 552.932 188.192 550.852 187.712C548.804 187.232 547.204 186.624 546.052 185.888L549.364 179.504C550.548 180.24 551.956 180.832 553.588 181.28C555.22 181.696 556.82 181.904 558.388 181.904C561.172 181.904 562.564 181.28 562.564 180.032C562.564 179.52 562.228 179.152 561.556 178.928C560.916 178.672 559.876 178.432 558.436 178.208C556.516 177.856 554.932 177.488 553.684 177.104C552.468 176.688 551.396 176 550.468 175.04C549.54 174.08 549.076 172.736 549.076 171.008C549.076 168 550.356 165.68 552.916 164.048C555.508 162.384 558.852 161.552 562.948 161.552C564.804 161.552 566.596 161.744 568.324 162.128C570.052 162.48 571.556 162.976 572.836 163.616L569.62 170C567.444 168.688 564.868 168.032 561.892 168.032C560.484 168.032 559.428 168.224 558.724 168.608C558.052 168.96 557.716 169.424 557.716 170C557.716 170.512 558.036 170.896 558.676 171.152C559.348 171.376 560.436 171.632 561.94 171.92C563.796 172.24 565.332 172.608 566.548 173.024C567.796 173.44 568.868 174.128 569.764 175.088C570.692 176.048 571.156 177.36 571.156 179.024C571.156 182.032 569.86 184.352 567.268 185.984C564.676 187.616 561.364 188.432 557.332 188.432ZM585.022 188.432C582.782 188.432 580.622 188.192 578.542 187.712C576.494 187.232 574.894 186.624 573.742 185.888L577.054 179.504C578.238 180.24 579.646 180.832 581.278 181.28C582.91 181.696 584.51 181.904 586.078 181.904C588.862 181.904 590.254 181.28 590.254 180.032C590.254 179.52 589.918 179.152 589.246 178.928C588.606 178.672 587.566 178.432 586.126 178.208C584.206 177.856 582.622 177.488 581.374 177.104C580.158 176.688 579.086 176 578.158 175.04C577.23 174.08 576.766 172.736 576.766 171.008C576.766 168 578.046 165.68 580.606 164.048C583.198 162.384 586.542 161.552 590.638 161.552C592.494 161.552 594.286 161.744 596.014 162.128C597.742 162.48 599.246 162.976 600.526 163.616L597.31 170C595.134 168.688 592.558 168.032 589.582 168.032C588.174 168.032 587.118 168.224 586.414 168.608C585.742 168.96 585.406 169.424 585.406 170C585.406 170.512 585.726 170.896 586.366 171.152C587.038 171.376 588.126 171.632 589.63 171.92C591.486 172.24 593.022 172.608 594.238 173.024C595.486 173.44 596.558 174.128 597.454 175.088C598.382 176.048 598.846 177.36 598.846 179.024C598.846 182.032 597.55 184.352 594.958 185.984C592.366 187.616 589.054 188.432 585.022 188.432ZM607.72 161.984H616.792L611.608 188H602.536L607.72 161.984ZM613.528 159.104C611.96 159.104 610.696 158.672 609.736 157.808C608.776 156.944 608.296 155.872 608.296 154.592C608.296 153.088 608.824 151.856 609.88 150.896C610.968 149.904 612.392 149.408 614.152 149.408C615.752 149.408 617.032 149.824 617.992 150.656C618.952 151.456 619.432 152.496 619.432 153.776C619.432 155.344 618.888 156.624 617.8 157.616C616.712 158.608 615.288 159.104 613.528 159.104ZM633.377 188.432C630.625 188.432 628.225 187.952 626.177 186.992C624.129 186 622.545 184.608 621.425 182.816C620.305 181.024 619.745 178.944 619.745 176.576C619.745 173.728 620.433 171.168 621.809 168.896C623.185 166.624 625.089 164.832 627.521 163.52C629.953 162.208 632.689 161.552 635.729 161.552C638.481 161.552 640.881 162.048 642.929 163.04C644.977 164 646.561 165.376 647.681 167.168C648.801 168.928 649.361 170.992 649.361 173.36C649.361 176.208 648.673 178.784 647.297 181.088C645.921 183.36 644.017 185.152 641.585 186.464C639.185 187.776 636.449 188.432 633.377 188.432ZM633.905 181.088C635.729 181.088 637.217 180.416 638.369 179.072C639.521 177.728 640.097 175.984 640.097 173.84C640.097 172.304 639.665 171.088 638.801 170.192C637.937 169.296 636.737 168.848 635.201 168.848C633.377 168.848 631.889 169.52 630.737 170.864C629.585 172.208 629.009 173.968 629.009 176.144C629.009 177.68 629.441 178.896 630.305 179.792C631.169 180.656 632.369 181.088 633.905 181.088ZM673.747 161.552C676.595 161.552 678.867 162.32 680.563 163.856C682.291 165.36 683.155 167.536 683.155 170.384C683.155 171.44 683.043 172.512 682.819 173.6L679.939 188H670.819L673.507 174.464C673.635 173.92 673.699 173.344 673.699 172.736C673.699 170.432 672.499 169.28 670.099 169.28C668.499 169.28 667.187 169.776 666.163 170.768C665.139 171.728 664.419 173.184 664.003 175.136L661.411 188H652.291L657.475 161.984H666.115L665.587 164.672C666.707 163.616 667.971 162.832 669.379 162.32C670.787 161.808 672.243 161.552 673.747 161.552ZM697.329 188.432C695.089 188.432 692.929 188.192 690.849 187.712C688.801 187.232 687.201 186.624 686.049 185.888L689.361 179.504C690.545 180.24 691.953 180.832 693.585 181.28C695.217 181.696 696.817 181.904 698.385 181.904C701.169 181.904 702.561 181.28 702.561 180.032C702.561 179.52 702.225 179.152 701.553 178.928C700.913 178.672 699.873 178.432 698.433 178.208C696.513 177.856 694.929 177.488 693.681 177.104C692.465 176.688 691.393 176 690.465 175.04C689.537 174.08 689.073 172.736 689.073 171.008C689.073 168 690.353 165.68 692.913 164.048C695.505 162.384 698.849 161.552 702.945 161.552C704.801 161.552 706.593 161.744 708.321 162.128C710.049 162.48 711.553 162.976 712.833 163.616L709.617 170C707.441 168.688 704.865 168.032 701.889 168.032C700.481 168.032 699.425 168.224 698.721 168.608C698.049 168.96 697.713 169.424 697.713 170C697.713 170.512 698.033 170.896 698.673 171.152C699.345 171.376 700.433 171.632 701.937 171.92C703.793 172.24 705.329 172.608 706.545 173.024C707.793 173.44 708.865 174.128 709.761 175.088C710.689 176.048 711.153 177.36 711.153 179.024C711.153 182.032 709.857 184.352 707.265 185.984C704.673 187.616 701.361 188.432 697.329 188.432Z" fill="white"/>
</svg>
