<svg width="229" height="307" viewBox="0 0 229 307" fill="none" xmlns="http://www.w3.org/2000/svg">
<circle cx="114.5" cy="114.5" r="114.5" fill="#FBD90E"/>
<path d="M82.536 100.616L80.448 107.96H82.608C88.752 107.96 93.432 109.16 96.648 111.56C99.864 113.96 101.472 117.44 101.472 122C101.472 125.84 100.416 129.2 98.304 132.08C96.24 134.96 93.36 137.168 89.664 138.704C85.968 140.24 81.768 141.008 77.064 141.008C73.368 141.008 69.888 140.552 66.624 139.64C63.36 138.68 60.528 137.288 58.128 135.464L64.752 125.312C66.528 126.656 68.568 127.688 70.872 128.408C73.224 129.128 75.6 129.488 78 129.488C80.88 129.488 83.112 128.984 84.696 127.976C86.28 126.92 87.072 125.48 87.072 123.656C87.072 122.168 86.424 121.04 85.128 120.272C83.88 119.456 81.84 119.048 79.008 119.048H64.536L72.96 89.6H105L102.768 100.616H82.536ZM121.535 116.888C118.079 116.888 115.295 115.856 113.183 113.792C111.119 111.728 110.087 108.896 110.087 105.296C110.087 102.224 110.687 99.44 111.887 96.944C113.087 94.448 114.791 92.504 116.999 91.112C119.255 89.672 121.871 88.952 124.847 88.952C128.303 88.952 131.063 89.984 133.127 92.048C135.239 94.112 136.295 96.944 136.295 100.544C136.295 103.616 135.695 106.4 134.495 108.896C133.343 111.392 131.639 113.36 129.383 114.8C127.175 116.192 124.559 116.888 121.535 116.888ZM155.087 89.6H165.959L122.111 140H111.167L155.087 89.6ZM122.327 110.048C124.103 110.048 125.423 109.136 126.287 107.312C127.151 105.44 127.583 103.328 127.583 100.976C127.583 99.2 127.247 97.904 126.575 97.088C125.951 96.224 125.111 95.792 124.055 95.792C122.279 95.792 120.959 96.728 120.095 98.6C119.231 100.424 118.799 102.512 118.799 104.864C118.799 106.64 119.111 107.96 119.735 108.824C120.407 109.64 121.271 110.048 122.327 110.048ZM152.351 140.648C148.895 140.648 146.111 139.64 143.999 137.624C141.935 135.56 140.903 132.704 140.903 129.056C140.903 125.984 141.479 123.224 142.631 120.776C143.831 118.28 145.535 116.336 147.743 114.944C149.999 113.504 152.639 112.784 155.663 112.784C159.119 112.784 161.879 113.816 163.943 115.88C166.055 117.896 167.111 120.704 167.111 124.304C167.111 127.376 166.511 130.16 165.311 132.656C164.159 135.152 162.455 137.12 160.199 138.56C157.991 139.952 155.375 140.648 152.351 140.648ZM153.143 133.88C154.919 133.88 156.215 132.944 157.031 131.072C157.895 129.2 158.327 127.088 158.327 124.736C158.327 122.96 158.015 121.664 157.391 120.848C156.767 119.984 155.927 119.552 154.871 119.552C153.095 119.552 151.775 120.488 150.911 122.36C150.047 124.232 149.615 126.32 149.615 128.624C149.615 130.4 149.927 131.72 150.551 132.584C151.223 133.448 152.087 133.88 153.143 133.88Z" fill="black"/>
<path d="M28.535 298.504C25.991 298.504 23.759 298.048 21.839 297.136C19.919 296.2 18.443 294.892 17.411 293.212C16.379 291.532 15.863 289.6 15.863 287.416C15.863 284.536 16.523 281.944 17.843 279.64C19.187 277.336 21.059 275.536 23.459 274.24C25.859 272.944 28.595 272.296 31.667 272.296C33.995 272.296 36.059 272.716 37.859 273.556C39.659 274.372 41.003 275.536 41.891 277.048L36.743 281.152C35.519 279.184 33.671 278.2 31.199 278.2C29.591 278.2 28.175 278.584 26.951 279.352C25.727 280.096 24.767 281.14 24.071 282.484C23.399 283.804 23.063 285.292 23.063 286.948C23.063 288.652 23.615 290.02 24.719 291.052C25.823 292.084 27.323 292.6 29.219 292.6C31.619 292.6 33.671 291.628 35.375 289.684L39.587 293.824C38.219 295.48 36.623 296.68 34.799 297.424C32.975 298.144 30.887 298.504 28.535 298.504ZM54.4418 298.504C51.8978 298.504 49.6778 298.036 47.7818 297.1C45.9098 296.164 44.4578 294.856 43.4258 293.176C42.4178 291.496 41.9138 289.576 41.9138 287.416C41.9138 284.536 42.5738 281.944 43.8938 279.64C45.2378 277.336 47.0978 275.536 49.4738 274.24C51.8738 272.944 54.5978 272.296 57.6458 272.296C60.1898 272.296 62.3978 272.764 64.2698 273.7C66.1658 274.636 67.6178 275.944 68.6258 277.624C69.6578 279.304 70.1738 281.224 70.1738 283.384C70.1738 286.264 69.5018 288.856 68.1578 291.16C66.8378 293.464 64.9778 295.264 62.5778 296.56C60.2018 297.856 57.4898 298.504 54.4418 298.504ZM55.0538 292.6C56.6378 292.6 58.0298 292.204 59.2298 291.412C60.4298 290.62 61.3538 289.564 62.0018 288.244C62.6498 286.9 62.9738 285.424 62.9738 283.816C62.9738 282.112 62.4458 280.756 61.3898 279.748C60.3578 278.716 58.9058 278.2 57.0338 278.2C55.4498 278.2 54.0578 278.596 52.8578 279.388C51.6578 280.18 50.7338 281.248 50.0858 282.592C49.4378 283.912 49.1138 285.376 49.1138 286.984C49.1138 288.688 49.6298 290.056 50.6618 291.088C51.7178 292.096 53.1818 292.6 55.0538 292.6ZM100.259 272.8L95.2191 298H89.3511L81.0351 284.176L78.2631 298H71.2791L76.3191 272.8H82.1871L90.5391 286.588L93.2751 272.8H100.259ZM109.535 278.452H101.795L102.947 272.8H125.519L124.367 278.452H116.663L112.739 298H105.611L109.535 278.452ZM134.079 278.308L133.251 282.556H144.447L143.403 287.884H132.171L131.271 292.492H144.483L143.331 298H123.135L128.175 272.8H147.903L146.787 278.308H134.079ZM156.718 298.504C154.63 298.504 152.65 298.252 150.778 297.748C148.906 297.244 147.382 296.596 146.206 295.804L149.014 290.476C150.286 291.292 151.642 291.916 153.082 292.348C154.522 292.756 155.962 292.96 157.402 292.96C158.77 292.96 159.826 292.768 160.57 292.384C161.338 291.976 161.722 291.424 161.722 290.728C161.722 290.128 161.374 289.66 160.678 289.324C160.006 288.988 158.95 288.628 157.51 288.244C155.878 287.812 154.522 287.38 153.442 286.948C152.362 286.492 151.426 285.808 150.634 284.896C149.866 283.984 149.482 282.784 149.482 281.296C149.482 279.496 149.974 277.924 150.958 276.58C151.942 275.212 153.346 274.156 155.17 273.412C156.994 272.668 159.13 272.296 161.578 272.296C163.378 272.296 165.058 272.488 166.618 272.872C168.178 273.232 169.522 273.76 170.65 274.456L168.058 279.748C167.074 279.124 165.982 278.656 164.782 278.344C163.606 278.008 162.394 277.84 161.146 277.84C159.73 277.84 158.614 278.068 157.798 278.524C157.006 278.98 156.61 279.568 156.61 280.288C156.61 280.912 156.958 281.392 157.654 281.728C158.35 282.064 159.43 282.424 160.894 282.808C162.526 283.216 163.87 283.636 164.926 284.068C166.006 284.5 166.93 285.16 167.698 286.048C168.466 286.936 168.85 288.1 168.85 289.54C168.85 291.316 168.346 292.888 167.338 294.256C166.354 295.6 164.938 296.644 163.09 297.388C161.266 298.132 159.142 298.504 156.718 298.504ZM179.531 278.452H171.791L172.943 272.8H195.515L194.363 278.452H186.659L182.735 298H175.607L179.531 278.452ZM202.456 298.504C200.368 298.504 198.388 298.252 196.516 297.748C194.644 297.244 193.12 296.596 191.944 295.804L194.752 290.476C196.024 291.292 197.38 291.916 198.82 292.348C200.26 292.756 201.7 292.96 203.14 292.96C204.508 292.96 205.564 292.768 206.308 292.384C207.076 291.976 207.46 291.424 207.46 290.728C207.46 290.128 207.112 289.66 206.416 289.324C205.744 288.988 204.688 288.628 203.248 288.244C201.616 287.812 200.26 287.38 199.18 286.948C198.1 286.492 197.164 285.808 196.372 284.896C195.604 283.984 195.22 282.784 195.22 281.296C195.22 279.496 195.712 277.924 196.696 276.58C197.68 275.212 199.084 274.156 200.908 273.412C202.732 272.668 204.868 272.296 207.316 272.296C209.116 272.296 210.796 272.488 212.356 272.872C213.916 273.232 215.26 273.76 216.388 274.456L213.796 279.748C212.812 279.124 211.72 278.656 210.52 278.344C209.344 278.008 208.132 277.84 206.884 277.84C205.468 277.84 204.352 278.068 203.536 278.524C202.744 278.98 202.348 279.568 202.348 280.288C202.348 280.912 202.696 281.392 203.392 281.728C204.088 282.064 205.168 282.424 206.632 282.808C208.264 283.216 209.608 283.636 210.664 284.068C211.744 284.5 212.668 285.16 213.436 286.048C214.204 286.936 214.588 288.1 214.588 289.54C214.588 291.316 214.084 292.888 213.076 294.256C212.092 295.6 210.676 296.644 208.828 297.388C207.004 298.132 204.88 298.504 202.456 298.504Z" fill="white"/>
</svg>
