<svg width="234" height="307" viewBox="0 0 234 307" fill="none" xmlns="http://www.w3.org/2000/svg">
<circle cx="116.5" cy="114.5" r="114.5" fill="#FD0948"/>
<path d="M105.128 98.528L92.24 110.12C95.504 111.032 98.024 112.592 99.8 114.8C101.624 116.96 102.536 119.6 102.536 122.72C102.536 126.224 101.48 129.368 99.368 132.152C97.256 134.888 94.352 137.048 90.656 138.632C86.96 140.216 82.784 141.008 78.128 141.008C74.432 141.008 70.952 140.552 67.688 139.64C64.424 138.68 61.592 137.288 59.192 135.464L65.816 125.312C67.592 126.656 69.632 127.688 71.936 128.408C74.288 129.128 76.664 129.488 79.064 129.488C81.992 129.488 84.224 128.984 85.76 127.976C87.344 126.92 88.136 125.456 88.136 123.584C88.136 120.752 85.904 119.336 81.44 119.336H75.32L77.12 110.336L87.92 100.616H68.192L70.424 89.6H106.856L105.128 98.528ZM123.184 116.888C119.728 116.888 116.944 115.856 114.832 113.792C112.768 111.728 111.736 108.896 111.736 105.296C111.736 102.224 112.336 99.44 113.536 96.944C114.736 94.448 116.44 92.504 118.648 91.112C120.904 89.672 123.52 88.952 126.496 88.952C129.952 88.952 132.712 89.984 134.776 92.048C136.888 94.112 137.944 96.944 137.944 100.544C137.944 103.616 137.344 106.4 136.144 108.896C134.992 111.392 133.288 113.36 131.032 114.8C128.824 116.192 126.208 116.888 123.184 116.888ZM156.736 89.6H167.608L123.76 140H112.816L156.736 89.6ZM123.976 110.048C125.752 110.048 127.072 109.136 127.936 107.312C128.8 105.44 129.232 103.328 129.232 100.976C129.232 99.2 128.896 97.904 128.224 97.088C127.6 96.224 126.76 95.792 125.704 95.792C123.928 95.792 122.608 96.728 121.744 98.6C120.88 100.424 120.448 102.512 120.448 104.864C120.448 106.64 120.76 107.96 121.384 108.824C122.056 109.64 122.92 110.048 123.976 110.048ZM154 140.648C150.544 140.648 147.76 139.64 145.648 137.624C143.584 135.56 142.552 132.704 142.552 129.056C142.552 125.984 143.128 123.224 144.28 120.776C145.48 118.28 147.184 116.336 149.392 114.944C151.648 113.504 154.288 112.784 157.312 112.784C160.768 112.784 163.528 113.816 165.592 115.88C167.704 117.896 168.76 120.704 168.76 124.304C168.76 127.376 168.16 130.16 166.96 132.656C165.808 135.152 164.104 137.12 161.848 138.56C159.64 139.952 157.024 140.648 154 140.648ZM154.792 133.88C156.568 133.88 157.864 132.944 158.68 131.072C159.544 129.2 159.976 127.088 159.976 124.736C159.976 122.96 159.664 121.664 159.04 120.848C158.416 119.984 157.576 119.552 156.52 119.552C154.744 119.552 153.424 120.488 152.56 122.36C151.696 124.232 151.264 126.32 151.264 128.624C151.264 130.4 151.576 131.72 152.2 132.584C152.872 133.448 153.736 133.88 154.792 133.88Z" fill="white"/>
<path d="M35.1918 272.8L30.2238 298H23.6358L26.2278 284.716L17.8398 295.516H14.7078L10.1358 284.716L7.47175 298H0.91975L5.95975 272.8H11.7558L17.6598 287.38L29.1078 272.8H35.1918ZM53.4114 293.104H42.6834L39.7674 298H32.2434L48.4074 272.8H55.4274L61.5114 298H54.4194L53.4114 293.104ZM52.3314 287.848L50.6394 279.676L45.8154 287.848H52.3314ZM89.5242 280.828C89.5242 283.132 88.9122 285.124 87.6882 286.804C86.4642 288.46 84.7482 289.672 82.5402 290.44L86.8242 298H79.3722L75.6282 291.304H72.0282L70.6962 298H63.5682L68.6082 272.8H79.3722C82.5882 272.8 85.0842 273.508 86.8602 274.924C88.6362 276.34 89.5242 278.308 89.5242 280.828ZM82.3242 281.512C82.3242 280.48 81.9762 279.712 81.2802 279.208C80.5842 278.68 79.6122 278.416 78.3642 278.416H74.6202L73.1082 285.796H77.3562C78.9402 285.796 80.1642 285.424 81.0282 284.68C81.8922 283.936 82.3242 282.88 82.3242 281.512ZM107.029 284.392L115.489 298H107.533L101.737 288.928L98.4606 291.88L97.2366 298H90.2166L95.2566 272.8H102.277L100.225 283.096L111.601 272.8H119.989L107.029 284.392ZM128.231 278.308L127.403 282.556H138.599L137.555 287.884H126.323L125.423 292.492H138.635L137.483 298H117.287L122.327 272.8H142.055L140.939 278.308H128.231ZM150.726 278.452H142.986L144.138 272.8H166.71L165.558 278.452H157.854L153.93 298H146.802L150.726 278.452ZM169.366 272.8H176.494L171.454 298H164.326L169.366 272.8ZM205.505 272.8L200.465 298H194.597L186.281 284.176L183.509 298H176.525L181.565 272.8H187.433L195.785 286.588L198.521 272.8H205.505ZM225.041 284.86H231.341L229.217 295.48C227.921 296.464 226.409 297.22 224.681 297.748C222.977 298.252 221.177 298.504 219.281 298.504C216.737 298.504 214.505 298.048 212.585 297.136C210.689 296.2 209.213 294.892 208.157 293.212C207.125 291.532 206.609 289.6 206.609 287.416C206.609 284.512 207.281 281.92 208.625 279.64C209.969 277.336 211.853 275.536 214.277 274.24C216.701 272.944 219.485 272.296 222.629 272.296C227.621 272.296 231.281 273.844 233.609 276.94L228.497 280.972C227.681 279.964 226.781 279.256 225.797 278.848C224.813 278.416 223.649 278.2 222.305 278.2C220.601 278.2 219.101 278.584 217.805 279.352C216.533 280.096 215.549 281.128 214.853 282.448C214.157 283.768 213.809 285.268 213.809 286.948C213.809 288.676 214.373 290.056 215.501 291.088C216.629 292.096 218.213 292.6 220.253 292.6C221.477 292.6 222.593 292.396 223.601 291.988L225.041 284.86Z" fill="white"/>
</svg>
