<svg width="237" height="311" viewBox="0 0 237 311" fill="none" xmlns="http://www.w3.org/2000/svg">
<circle cx="118.5" cy="118.5" r="116.5" fill="black" stroke="white" stroke-width="4"/>
<path d="M84.024 132.696H102.816L100.512 144H61.272L63.072 135.072L85.104 117.936C87.648 115.968 89.4 114.312 90.36 112.968C91.32 111.576 91.8 110.16 91.8 108.72C91.8 107.28 91.272 106.152 90.216 105.336C89.16 104.472 87.648 104.04 85.68 104.04C83.904 104.04 82.2 104.472 80.568 105.336C78.984 106.2 77.568 107.448 76.32 109.08L66.816 102.816C68.832 99.696 71.688 97.224 75.384 95.4C79.128 93.528 83.28 92.592 87.84 92.592C91.44 92.592 94.632 93.192 97.416 94.392C100.248 95.592 102.456 97.272 104.04 99.432C105.624 101.544 106.416 103.92 106.416 106.56C106.416 109.728 105.528 112.68 103.752 115.416C102.024 118.152 98.976 121.176 94.608 124.488L84.024 132.696ZM125.309 120.888C121.853 120.888 119.069 119.856 116.957 117.792C114.893 115.728 113.861 112.896 113.861 109.296C113.861 106.224 114.461 103.44 115.661 100.944C116.861 98.448 118.565 96.504 120.773 95.112C123.029 93.672 125.645 92.952 128.621 92.952C132.077 92.952 134.837 93.984 136.901 96.048C139.013 98.112 140.069 100.944 140.069 104.544C140.069 107.616 139.469 110.4 138.269 112.896C137.117 115.392 135.413 117.36 133.157 118.8C130.949 120.192 128.333 120.888 125.309 120.888ZM158.861 93.6H169.733L125.885 144H114.941L158.861 93.6ZM126.101 114.048C127.877 114.048 129.197 113.136 130.061 111.312C130.925 109.44 131.357 107.328 131.357 104.976C131.357 103.2 131.021 101.904 130.349 101.088C129.725 100.224 128.885 99.792 127.829 99.792C126.053 99.792 124.733 100.728 123.869 102.6C123.005 104.424 122.573 106.512 122.573 108.864C122.573 110.64 122.885 111.96 123.509 112.824C124.181 113.64 125.045 114.048 126.101 114.048ZM156.125 144.648C152.669 144.648 149.885 143.64 147.773 141.624C145.709 139.56 144.677 136.704 144.677 133.056C144.677 129.984 145.253 127.224 146.405 124.776C147.605 122.28 149.309 120.336 151.517 118.944C153.773 117.504 156.413 116.784 159.437 116.784C162.893 116.784 165.653 117.816 167.717 119.88C169.829 121.896 170.885 124.704 170.885 128.304C170.885 131.376 170.285 134.16 169.085 136.656C167.933 139.152 166.229 141.12 163.973 142.56C161.765 143.952 159.149 144.648 156.125 144.648ZM156.917 137.88C158.693 137.88 159.989 136.944 160.805 135.072C161.669 133.2 162.101 131.088 162.101 128.736C162.101 126.96 161.789 125.664 161.165 124.848C160.541 123.984 159.701 123.552 158.645 123.552C156.869 123.552 155.549 124.488 154.685 126.36C153.821 128.232 153.389 130.32 153.389 132.624C153.389 134.4 153.701 135.72 154.325 136.584C154.997 137.448 155.861 137.88 156.917 137.88Z" fill="white"/>
<path d="M84.024 132.696L83.4112 131.906L81.1027 133.696H84.024V132.696ZM102.816 132.696L103.796 132.896L104.04 131.696H102.816V132.696ZM100.512 144V145H101.329L101.492 144.2L100.512 144ZM61.272 144L60.2917 143.802L60.0503 145H61.272V144ZM63.072 135.072L62.4581 134.283L62.1651 134.511L62.0917 134.874L63.072 135.072ZM85.104 117.936L84.4921 117.145L84.4901 117.147L85.104 117.936ZM90.36 112.968L91.1737 113.549L91.1785 113.543L91.1832 113.536L90.36 112.968ZM90.216 105.336L89.5828 106.11L89.5935 106.119L89.6046 106.127L90.216 105.336ZM80.568 105.336L80.1001 104.452L80.0892 104.458L80.568 105.336ZM76.32 109.08L75.7697 109.915L76.5481 110.428L77.1144 109.687L76.32 109.08ZM66.816 102.816L65.9761 102.273L65.4383 103.106L66.2657 103.651L66.816 102.816ZM75.384 95.4L75.8266 96.2968L75.8312 96.2944L75.384 95.4ZM97.416 94.392L97.0202 95.3103L97.0259 95.3128L97.416 94.392ZM104.04 99.432L103.234 100.023L103.24 100.032L104.04 99.432ZM103.752 115.416L102.913 114.871L102.907 114.882L103.752 115.416ZM94.608 124.488L94.0038 123.691L93.9952 123.698L94.608 124.488ZM84.024 133.696H102.816V131.696H84.024V133.696ZM101.836 132.496L99.5321 143.8L101.492 144.2L103.796 132.896L101.836 132.496ZM100.512 143H61.272V145H100.512V143ZM62.2523 144.198L64.0523 135.27L62.0917 134.874L60.2917 143.802L62.2523 144.198ZM63.6859 135.861L85.7179 118.725L84.4901 117.147L62.4581 134.283L63.6859 135.861ZM85.7159 118.727C88.2786 116.744 90.126 115.016 91.1737 113.549L89.5463 112.387C88.674 113.608 87.0174 115.192 84.4921 117.145L85.7159 118.727ZM91.1832 113.536C92.2378 112.007 92.8 110.396 92.8 108.72H90.8C90.8 109.924 90.4022 111.145 89.5368 112.4L91.1832 113.536ZM92.8 108.72C92.8 106.999 92.15 105.567 90.8274 104.545L89.6046 106.127C90.394 106.737 90.8 107.561 90.8 108.72H92.8ZM90.8492 104.562C89.5503 103.499 87.7792 103.04 85.68 103.04V105.04C87.5168 105.04 88.7697 105.445 89.5828 106.11L90.8492 104.562ZM85.68 103.04C83.7343 103.04 81.8703 103.515 80.1001 104.452L81.0359 106.22C82.5297 105.429 84.0737 105.04 85.68 105.04V103.04ZM80.0892 104.458C78.3663 105.398 76.8469 106.745 75.5256 108.473L77.1144 109.687C78.2891 108.151 79.6017 107.002 81.0469 106.214L80.0892 104.458ZM76.8703 108.245L67.3663 101.981L66.2657 103.651L75.7697 109.915L76.8703 108.245ZM67.6559 103.359C69.5634 100.407 72.2743 98.0498 75.8265 96.2967L74.9415 94.5033C71.1017 96.3982 68.1006 98.9853 65.9761 102.273L67.6559 103.359ZM75.8312 96.2944C79.4243 94.4979 83.4211 93.592 87.84 93.592V91.592C83.1389 91.592 78.8317 92.5581 74.9368 94.5056L75.8312 96.2944ZM87.84 93.592C91.329 93.592 94.3823 94.1733 97.0202 95.3103L97.8118 93.4737C94.8817 92.2107 91.551 91.592 87.84 91.592V93.592ZM97.0259 95.3128C99.717 96.4531 101.771 98.0291 103.234 100.023L104.846 98.8406C103.141 96.5149 100.779 94.7309 97.8061 93.4712L97.0259 95.3128ZM103.24 100.032C104.694 101.971 105.416 104.136 105.416 106.56H107.416C107.416 103.704 106.554 101.117 104.84 98.832L103.24 100.032ZM105.416 106.56C105.416 109.529 104.587 112.293 102.913 114.872L104.591 115.96C106.469 113.067 107.416 109.927 107.416 106.56H105.416ZM102.907 114.882C101.272 117.47 98.3331 120.408 94.0038 123.691L95.2122 125.285C99.6189 121.944 102.776 118.834 104.597 115.95L102.907 114.882ZM93.9952 123.698L83.4112 131.906L84.6368 133.486L95.2208 125.278L93.9952 123.698ZM116.957 117.792L116.25 118.499L116.258 118.507L116.957 117.792ZM115.661 100.944L114.759 100.511L114.759 100.511L115.661 100.944ZM120.773 95.112L121.306 95.9579L121.311 95.9549L120.773 95.112ZM136.901 96.048L136.194 96.7552L136.202 96.7632L136.901 96.048ZM138.269 112.896L137.367 112.463L137.364 112.47L137.361 112.477L138.269 112.896ZM133.157 118.8L133.69 119.646L133.695 119.643L133.157 118.8ZM158.861 93.6V92.6H158.406L158.107 92.943L158.861 93.6ZM169.733 93.6L170.487 94.2564L171.928 92.6H169.733V93.6ZM125.885 144V145H126.34L126.639 144.656L125.885 144ZM114.941 144L114.187 143.343L112.743 145H114.941V144ZM130.061 111.312L130.964 111.74L130.969 111.731L130.061 111.312ZM130.349 101.088L129.538 101.673L129.557 101.699L129.577 101.724L130.349 101.088ZM123.869 102.6L124.772 103.028L124.777 103.019L123.869 102.6ZM123.509 112.824L122.698 113.409L122.717 113.435L122.737 113.46L123.509 112.824ZM147.773 141.624L147.066 142.331L147.074 142.339L147.082 142.347L147.773 141.624ZM146.405 124.776L145.503 124.343L145.5 124.35L146.405 124.776ZM151.517 118.944L152.05 119.79L152.055 119.787L151.517 118.944ZM167.717 119.88L167.01 120.587L167.018 120.595L167.026 120.603L167.717 119.88ZM169.085 136.656L168.183 136.223L168.18 136.23L168.177 136.237L169.085 136.656ZM163.973 142.56L164.506 143.406L164.511 143.403L163.973 142.56ZM160.805 135.072L159.897 134.653L159.892 134.663L159.888 134.672L160.805 135.072ZM161.165 124.848L160.354 125.433L160.362 125.445L160.37 125.455L161.165 124.848ZM154.685 126.36L155.593 126.779L155.593 126.779L154.685 126.36ZM154.325 136.584L153.514 137.169L153.524 137.184L153.535 137.198L154.325 136.584ZM125.309 119.888C122.066 119.888 119.549 118.927 117.656 117.077L116.258 118.507C118.588 120.785 121.639 121.888 125.309 121.888V119.888ZM117.664 117.085C115.829 115.25 114.861 112.696 114.861 109.296H112.861C112.861 113.096 113.956 116.206 116.25 118.499L117.664 117.085ZM114.861 109.296C114.861 106.357 115.434 103.724 116.562 101.377L114.759 100.511C113.488 103.156 112.861 106.091 112.861 109.296H114.861ZM116.562 101.377C117.686 99.0399 119.267 97.2435 121.306 95.9579L120.239 94.2661C117.863 95.7645 116.036 97.8561 114.759 100.511L116.562 101.377ZM121.311 95.9549C123.388 94.6288 125.813 93.952 128.621 93.952V91.952C125.476 91.952 122.669 92.7152 120.235 94.2691L121.311 95.9549ZM128.621 93.952C131.864 93.952 134.351 94.9127 136.194 96.7551L137.608 95.3409C135.322 93.0553 132.289 91.952 128.621 91.952V93.952ZM136.202 96.7632C138.08 98.5991 139.069 101.15 139.069 104.544H141.069C141.069 100.738 139.945 97.6249 137.6 95.3328L136.202 96.7632ZM139.069 104.544C139.069 107.483 138.496 110.116 137.367 112.463L139.17 113.329C140.442 110.684 141.069 107.749 141.069 104.544H139.069ZM137.361 112.477C136.287 114.804 134.709 116.623 132.619 117.957L133.695 119.643C136.117 118.097 137.947 115.98 139.177 113.315L137.361 112.477ZM132.623 117.954C130.599 119.23 128.174 119.888 125.309 119.888V121.888C128.491 121.888 131.298 121.154 133.69 119.646L132.623 117.954ZM158.861 94.6H169.733V92.6H158.861V94.6ZM168.978 92.9436L125.13 143.344L126.639 144.656L170.487 94.2564L168.978 92.9436ZM125.885 143H114.941V145H125.885V143ZM115.695 144.657L159.615 94.257L158.107 92.943L114.187 143.343L115.695 144.657ZM126.101 115.048C127.169 115.048 128.146 114.77 128.991 114.187C129.828 113.608 130.476 112.77 130.964 111.74L129.157 110.884C128.781 111.678 128.337 112.208 127.854 112.541C127.379 112.87 126.808 113.048 126.101 113.048V115.048ZM130.969 111.731C131.901 109.71 132.357 107.452 132.357 104.976H130.357C130.357 107.204 129.948 109.17 129.153 110.893L130.969 111.731ZM132.357 104.976C132.357 103.113 132.011 101.534 131.121 100.452L129.577 101.724C130.03 102.274 130.357 103.287 130.357 104.976H132.357ZM131.159 100.503C130.349 99.3811 129.209 98.792 127.829 98.792V100.792C128.56 100.792 129.1 101.067 129.538 101.673L131.159 100.503ZM127.829 98.792C126.755 98.792 125.774 99.0787 124.928 99.6783C124.092 100.272 123.446 101.129 122.961 102.181L124.777 103.019C125.155 102.199 125.602 101.652 126.085 101.31C126.56 100.973 127.127 100.792 127.829 100.792V98.792ZM122.965 102.172C122.028 104.15 121.573 106.388 121.573 108.864H123.573C123.573 106.636 123.981 104.698 124.772 103.028L122.965 102.172ZM121.573 108.864C121.573 110.723 121.893 112.295 122.698 113.409L124.319 112.239C123.876 111.625 123.573 110.557 123.573 108.864H121.573ZM122.737 113.46C123.598 114.506 124.746 115.048 126.101 115.048V113.048C125.344 113.048 124.763 112.774 124.281 112.188L122.737 113.46ZM156.125 143.648C152.875 143.648 150.356 142.707 148.463 140.901L147.082 142.347C149.414 144.573 152.462 145.648 156.125 145.648V143.648ZM148.48 140.917C146.648 139.085 145.677 136.509 145.677 133.056H143.677C143.677 136.899 144.77 140.035 147.066 142.331L148.48 140.917ZM145.677 133.056C145.677 130.111 146.228 127.5 147.31 125.202L145.5 124.35C144.277 126.948 143.677 129.857 143.677 133.056H145.677ZM147.306 125.209C148.43 122.872 150.011 121.075 152.05 119.79L150.983 118.098C148.607 119.597 146.78 121.688 145.503 124.343L147.306 125.209ZM152.055 119.787C154.13 118.462 156.578 117.784 159.437 117.784V115.784C156.248 115.784 153.416 116.546 150.979 118.101L152.055 119.787ZM159.437 117.784C162.68 117.784 165.167 118.745 167.01 120.587L168.424 119.173C166.138 116.887 163.105 115.784 159.437 115.784V117.784ZM167.026 120.603C168.896 122.388 169.885 124.909 169.885 128.304H171.885C171.885 124.499 170.761 121.404 168.407 119.157L167.026 120.603ZM169.885 128.304C169.885 131.243 169.312 133.876 168.183 136.223L169.986 137.089C171.258 134.444 171.885 131.509 171.885 128.304H169.885ZM168.177 136.237C167.103 138.564 165.525 140.383 163.435 141.717L164.511 143.403C166.933 141.857 168.763 139.74 169.993 137.075L168.177 136.237ZM163.439 141.714C161.415 142.99 158.99 143.648 156.125 143.648V145.648C159.307 145.648 162.114 144.914 164.506 143.406L163.439 141.714ZM156.917 138.88C157.99 138.88 158.969 138.593 159.806 137.989C160.634 137.39 161.261 136.527 161.721 135.472L159.888 134.672C159.532 135.489 159.103 136.03 158.635 136.367C158.176 136.699 157.619 136.88 156.917 136.88V138.88ZM161.713 135.491C162.645 133.47 163.101 131.212 163.101 128.736H161.101C161.101 130.964 160.692 132.93 159.897 134.653L161.713 135.491ZM163.101 128.736C163.101 126.884 162.783 125.318 161.959 124.241L160.37 125.455C160.794 126.01 161.101 127.036 161.101 128.736H163.101ZM161.975 124.263C161.165 123.141 160.025 122.552 158.645 122.552V124.552C159.376 124.552 159.916 124.827 160.354 125.433L161.975 124.263ZM158.645 122.552C157.571 122.552 156.59 122.839 155.744 123.438C154.908 124.032 154.262 124.889 153.777 125.941L155.593 126.779C155.971 125.959 156.418 125.412 156.901 125.07C157.376 124.733 157.943 124.552 158.645 124.552V122.552ZM153.777 125.941C152.845 127.959 152.389 130.192 152.389 132.624H154.389C154.389 130.448 154.796 128.505 155.593 126.779L153.777 125.941ZM152.389 132.624C152.389 134.483 152.709 136.055 153.514 137.169L155.135 135.999C154.692 135.385 154.389 134.317 154.389 132.624H152.389ZM153.535 137.198C154.389 138.295 155.539 138.88 156.917 138.88V136.88C156.182 136.88 155.605 136.601 155.114 135.97L153.535 137.198Z" fill="black"/>
<path d="M31.535 302.504C28.991 302.504 26.759 302.048 24.839 301.136C22.919 300.2 21.443 298.892 20.411 297.212C19.379 295.532 18.863 293.6 18.863 291.416C18.863 288.536 19.523 285.944 20.843 283.64C22.187 281.336 24.059 279.536 26.459 278.24C28.859 276.944 31.595 276.296 34.667 276.296C36.995 276.296 39.059 276.716 40.859 277.556C42.659 278.372 44.003 279.536 44.891 281.048L39.743 285.152C38.519 283.184 36.671 282.2 34.199 282.2C32.591 282.2 31.175 282.584 29.951 283.352C28.727 284.096 27.767 285.14 27.071 286.484C26.399 287.804 26.063 289.292 26.063 290.948C26.063 292.652 26.615 294.02 27.719 295.052C28.823 296.084 30.323 296.6 32.219 296.6C34.619 296.6 36.671 295.628 38.375 293.684L42.587 297.824C41.219 299.48 39.623 300.68 37.799 301.424C35.975 302.144 33.887 302.504 31.535 302.504ZM57.4418 302.504C54.8978 302.504 52.6778 302.036 50.7818 301.1C48.9098 300.164 47.4578 298.856 46.4258 297.176C45.4178 295.496 44.9138 293.576 44.9138 291.416C44.9138 288.536 45.5738 285.944 46.8938 283.64C48.2378 281.336 50.0978 279.536 52.4738 278.24C54.8738 276.944 57.5978 276.296 60.6458 276.296C63.1898 276.296 65.3978 276.764 67.2698 277.7C69.1658 278.636 70.6178 279.944 71.6258 281.624C72.6578 283.304 73.1738 285.224 73.1738 287.384C73.1738 290.264 72.5018 292.856 71.1578 295.16C69.8378 297.464 67.9778 299.264 65.5778 300.56C63.2018 301.856 60.4898 302.504 57.4418 302.504ZM58.0538 296.6C59.6378 296.6 61.0298 296.204 62.2298 295.412C63.4298 294.62 64.3538 293.564 65.0018 292.244C65.6498 290.9 65.9738 289.424 65.9738 287.816C65.9738 286.112 65.4458 284.756 64.3898 283.748C63.3578 282.716 61.9058 282.2 60.0338 282.2C58.4498 282.2 57.0578 282.596 55.8578 283.388C54.6578 284.18 53.7338 285.248 53.0858 286.592C52.4378 287.912 52.1138 289.376 52.1138 290.984C52.1138 292.688 52.6298 294.056 53.6618 295.088C54.7178 296.096 56.1818 296.6 58.0538 296.6ZM103.259 276.8L98.2191 302H92.3511L84.0351 288.176L81.2631 302H74.2791L79.3191 276.8H85.1871L93.5391 290.588L96.2751 276.8H103.259ZM112.535 282.452H104.795L105.947 276.8H128.519L127.367 282.452H119.663L115.739 302H108.611L112.535 282.452ZM137.079 282.308L136.251 286.556H147.447L146.403 291.884H135.171L134.271 296.492H147.483L146.331 302H126.135L131.175 276.8H150.903L149.787 282.308H137.079ZM159.718 302.504C157.63 302.504 155.65 302.252 153.778 301.748C151.906 301.244 150.382 300.596 149.206 299.804L152.014 294.476C153.286 295.292 154.642 295.916 156.082 296.348C157.522 296.756 158.962 296.96 160.402 296.96C161.77 296.96 162.826 296.768 163.57 296.384C164.338 295.976 164.722 295.424 164.722 294.728C164.722 294.128 164.374 293.66 163.678 293.324C163.006 292.988 161.95 292.628 160.51 292.244C158.878 291.812 157.522 291.38 156.442 290.948C155.362 290.492 154.426 289.808 153.634 288.896C152.866 287.984 152.482 286.784 152.482 285.296C152.482 283.496 152.974 281.924 153.958 280.58C154.942 279.212 156.346 278.156 158.17 277.412C159.994 276.668 162.13 276.296 164.578 276.296C166.378 276.296 168.058 276.488 169.618 276.872C171.178 277.232 172.522 277.76 173.65 278.456L171.058 283.748C170.074 283.124 168.982 282.656 167.782 282.344C166.606 282.008 165.394 281.84 164.146 281.84C162.73 281.84 161.614 282.068 160.798 282.524C160.006 282.98 159.61 283.568 159.61 284.288C159.61 284.912 159.958 285.392 160.654 285.728C161.35 286.064 162.43 286.424 163.894 286.808C165.526 287.216 166.87 287.636 167.926 288.068C169.006 288.5 169.93 289.16 170.698 290.048C171.466 290.936 171.85 292.1 171.85 293.54C171.85 295.316 171.346 296.888 170.338 298.256C169.354 299.6 167.938 300.644 166.09 301.388C164.266 302.132 162.142 302.504 159.718 302.504ZM182.531 282.452H174.791L175.943 276.8H198.515L197.363 282.452H189.659L185.735 302H178.607L182.531 282.452ZM205.456 302.504C203.368 302.504 201.388 302.252 199.516 301.748C197.644 301.244 196.12 300.596 194.944 299.804L197.752 294.476C199.024 295.292 200.38 295.916 201.82 296.348C203.26 296.756 204.7 296.96 206.14 296.96C207.508 296.96 208.564 296.768 209.308 296.384C210.076 295.976 210.46 295.424 210.46 294.728C210.46 294.128 210.112 293.66 209.416 293.324C208.744 292.988 207.688 292.628 206.248 292.244C204.616 291.812 203.26 291.38 202.18 290.948C201.1 290.492 200.164 289.808 199.372 288.896C198.604 287.984 198.22 286.784 198.22 285.296C198.22 283.496 198.712 281.924 199.696 280.58C200.68 279.212 202.084 278.156 203.908 277.412C205.732 276.668 207.868 276.296 210.316 276.296C212.116 276.296 213.796 276.488 215.356 276.872C216.916 277.232 218.26 277.76 219.388 278.456L216.796 283.748C215.812 283.124 214.72 282.656 213.52 282.344C212.344 282.008 211.132 281.84 209.884 281.84C208.468 281.84 207.352 282.068 206.536 282.524C205.744 282.98 205.348 283.568 205.348 284.288C205.348 284.912 205.696 285.392 206.392 285.728C207.088 286.064 208.168 286.424 209.632 286.808C211.264 287.216 212.608 287.636 213.664 288.068C214.744 288.5 215.668 289.16 216.436 290.048C217.204 290.936 217.588 292.1 217.588 293.54C217.588 295.316 217.084 296.888 216.076 298.256C215.092 299.6 213.676 300.644 211.828 301.388C210.004 302.132 207.88 302.504 205.456 302.504Z" fill="white"/>
</svg>
