<svg width="229" height="307" viewBox="0 0 229 307" fill="none" xmlns="http://www.w3.org/2000/svg">
<circle cx="114.5" cy="114.5" r="114.5" fill="#06D954"/>
<path d="M103.128 98.528L90.24 110.12C93.504 111.032 96.024 112.592 97.8 114.8C99.624 116.96 100.536 119.6 100.536 122.72C100.536 126.224 99.48 129.368 97.368 132.152C95.256 134.888 92.352 137.048 88.656 138.632C84.96 140.216 80.784 141.008 76.128 141.008C72.432 141.008 68.952 140.552 65.688 139.64C62.424 138.68 59.592 137.288 57.192 135.464L63.816 125.312C65.592 126.656 67.632 127.688 69.936 128.408C72.288 129.128 74.664 129.488 77.064 129.488C79.992 129.488 82.224 128.984 83.76 127.976C85.344 126.92 86.136 125.456 86.136 123.584C86.136 120.752 83.904 119.336 79.44 119.336H73.32L75.12 110.336L85.92 100.616H66.192L68.424 89.6H104.856L103.128 98.528ZM121.184 116.888C117.728 116.888 114.944 115.856 112.832 113.792C110.768 111.728 109.736 108.896 109.736 105.296C109.736 102.224 110.336 99.44 111.536 96.944C112.736 94.448 114.44 92.504 116.648 91.112C118.904 89.672 121.52 88.952 124.496 88.952C127.952 88.952 130.712 89.984 132.776 92.048C134.888 94.112 135.944 96.944 135.944 100.544C135.944 103.616 135.344 106.4 134.144 108.896C132.992 111.392 131.288 113.36 129.032 114.8C126.824 116.192 124.208 116.888 121.184 116.888ZM154.736 89.6H165.608L121.76 140H110.816L154.736 89.6ZM121.976 110.048C123.752 110.048 125.072 109.136 125.936 107.312C126.8 105.44 127.232 103.328 127.232 100.976C127.232 99.2 126.896 97.904 126.224 97.088C125.6 96.224 124.76 95.792 123.704 95.792C121.928 95.792 120.608 96.728 119.744 98.6C118.88 100.424 118.448 102.512 118.448 104.864C118.448 106.64 118.76 107.96 119.384 108.824C120.056 109.64 120.92 110.048 121.976 110.048ZM152 140.648C148.544 140.648 145.76 139.64 143.648 137.624C141.584 135.56 140.552 132.704 140.552 129.056C140.552 125.984 141.128 123.224 142.28 120.776C143.48 118.28 145.184 116.336 147.392 114.944C149.648 113.504 152.288 112.784 155.312 112.784C158.768 112.784 161.528 113.816 163.592 115.88C165.704 117.896 166.76 120.704 166.76 124.304C166.76 127.376 166.16 130.16 164.96 132.656C163.808 135.152 162.104 137.12 159.848 138.56C157.64 139.952 155.024 140.648 152 140.648ZM152.792 133.88C154.568 133.88 155.864 132.944 156.68 131.072C157.544 129.2 157.976 127.088 157.976 124.736C157.976 122.96 157.664 121.664 157.04 120.848C156.416 119.984 155.576 119.552 154.52 119.552C152.744 119.552 151.424 120.488 150.56 122.36C149.696 124.232 149.264 126.32 149.264 128.624C149.264 130.4 149.576 131.72 150.2 132.584C150.872 133.448 151.736 133.88 152.792 133.88Z" fill="black"/>
<path d="M47.8443 285.004C48.9243 285.484 49.7523 286.156 50.3283 287.02C50.9283 287.86 51.2283 288.856 51.2283 290.008C51.2283 292.624 50.1603 294.616 48.0243 295.984C45.8883 297.328 43.1043 298 39.6723 298H25.8123L30.8523 272.8H43.5963C46.4283 272.8 48.5883 273.316 50.0763 274.348C51.5883 275.356 52.3443 276.808 52.3443 278.704C52.3443 280.168 51.9483 281.44 51.1563 282.52C50.3643 283.576 49.2603 284.404 47.8443 285.004ZM36.8643 277.948L35.8923 282.808H41.0043C42.2763 282.808 43.2363 282.568 43.8843 282.088C44.5563 281.584 44.8923 280.864 44.8923 279.928C44.8923 278.608 43.8963 277.948 41.9043 277.948H36.8643ZM40.0683 292.852C41.3403 292.852 42.3363 292.6 43.0563 292.096C43.7763 291.592 44.1363 290.848 44.1363 289.864C44.1363 289.144 43.8723 288.616 43.3443 288.28C42.8163 287.92 42.0963 287.74 41.1843 287.74H34.8843L33.8763 292.852H40.0683ZM65.7563 298.504C63.5723 298.504 61.6883 298.144 60.1043 297.424C58.5203 296.68 57.3083 295.624 56.4683 294.256C55.6283 292.888 55.2083 291.28 55.2083 289.432C55.2083 288.664 55.3043 287.776 55.4963 286.768L58.3043 272.8H65.4323L62.6603 286.66C62.5163 287.38 62.4443 288.04 62.4443 288.64C62.4443 291.28 63.8363 292.6 66.6203 292.6C68.1323 292.6 69.3203 292.144 70.1843 291.232C71.0723 290.296 71.7323 288.772 72.1643 286.66L74.9363 272.8H81.9563L79.1123 287.092C77.5763 294.7 73.1243 298.504 65.7563 298.504ZM107.737 280.828C107.737 283.132 107.125 285.124 105.901 286.804C104.677 288.46 102.961 289.672 100.753 290.44L105.037 298H97.5851L93.8411 291.304H90.2411L88.9091 298H81.7811L86.8211 272.8H97.5851C100.801 272.8 103.297 273.508 105.073 274.924C106.849 276.34 107.737 278.308 107.737 280.828ZM100.537 281.512C100.537 280.48 100.189 279.712 99.4931 279.208C98.7971 278.68 97.8251 278.416 96.5771 278.416H92.8331L91.3211 285.796H95.5691C97.1531 285.796 98.3771 285.424 99.2411 284.68C100.105 283.936 100.537 282.88 100.537 281.512ZM137.41 272.8L132.37 298H126.502L118.186 284.176L115.414 298H108.43L113.47 272.8H119.338L127.69 286.588L130.426 272.8H137.41ZM142.473 272.8H149.601L144.561 298H137.433L142.473 272.8ZM178.613 272.8L173.573 298H167.705L159.389 284.176L156.617 298H149.633L154.673 272.8H160.541L168.893 286.588L171.629 272.8H178.613ZM198.149 284.86H204.449L202.325 295.48C201.029 296.464 199.517 297.22 197.789 297.748C196.085 298.252 194.285 298.504 192.389 298.504C189.845 298.504 187.613 298.048 185.693 297.136C183.797 296.2 182.321 294.892 181.265 293.212C180.233 291.532 179.717 289.6 179.717 287.416C179.717 284.512 180.389 281.92 181.733 279.64C183.077 277.336 184.961 275.536 187.385 274.24C189.809 272.944 192.593 272.296 195.737 272.296C200.729 272.296 204.389 273.844 206.717 276.94L201.605 280.972C200.789 279.964 199.889 279.256 198.905 278.848C197.921 278.416 196.757 278.2 195.413 278.2C193.709 278.2 192.209 278.584 190.913 279.352C189.641 280.096 188.657 281.128 187.961 282.448C187.265 283.768 186.917 285.268 186.917 286.948C186.917 288.676 187.481 290.056 188.609 291.088C189.737 292.096 191.321 292.6 193.361 292.6C194.585 292.6 195.701 292.396 196.709 291.988L198.149 284.86Z" fill="white"/>
</svg>
