<svg width="234" height="307" viewBox="0 0 234 307" fill="none" xmlns="http://www.w3.org/2000/svg">
<circle cx="116.5" cy="114.5" r="114.5" fill="#25A5FC"/>
<path d="M84.536 100.616L82.448 107.96H84.608C90.752 107.96 95.432 109.16 98.648 111.56C101.864 113.96 103.472 117.44 103.472 122C103.472 125.84 102.416 129.2 100.304 132.08C98.24 134.96 95.36 137.168 91.664 138.704C87.968 140.24 83.768 141.008 79.064 141.008C75.368 141.008 71.888 140.552 68.624 139.64C65.36 138.68 62.528 137.288 60.128 135.464L66.752 125.312C68.528 126.656 70.568 127.688 72.872 128.408C75.224 129.128 77.6 129.488 80 129.488C82.88 129.488 85.112 128.984 86.696 127.976C88.28 126.92 89.072 125.48 89.072 123.656C89.072 122.168 88.424 121.04 87.128 120.272C85.88 119.456 83.84 119.048 81.008 119.048H66.536L74.96 89.6H107L104.768 100.616H84.536ZM123.535 116.888C120.079 116.888 117.295 115.856 115.183 113.792C113.119 111.728 112.087 108.896 112.087 105.296C112.087 102.224 112.687 99.44 113.887 96.944C115.087 94.448 116.791 92.504 118.999 91.112C121.255 89.672 123.871 88.952 126.847 88.952C130.303 88.952 133.063 89.984 135.127 92.048C137.239 94.112 138.295 96.944 138.295 100.544C138.295 103.616 137.695 106.4 136.495 108.896C135.343 111.392 133.639 113.36 131.383 114.8C129.175 116.192 126.559 116.888 123.535 116.888ZM157.087 89.6H167.959L124.111 140H113.167L157.087 89.6ZM124.327 110.048C126.103 110.048 127.423 109.136 128.287 107.312C129.151 105.44 129.583 103.328 129.583 100.976C129.583 99.2 129.247 97.904 128.575 97.088C127.951 96.224 127.111 95.792 126.055 95.792C124.279 95.792 122.959 96.728 122.095 98.6C121.231 100.424 120.799 102.512 120.799 104.864C120.799 106.64 121.111 107.96 121.735 108.824C122.407 109.64 123.271 110.048 124.327 110.048ZM154.351 140.648C150.895 140.648 148.111 139.64 145.999 137.624C143.935 135.56 142.903 132.704 142.903 129.056C142.903 125.984 143.479 123.224 144.631 120.776C145.831 118.28 147.535 116.336 149.743 114.944C151.999 113.504 154.639 112.784 157.663 112.784C161.119 112.784 163.879 113.816 165.943 115.88C168.055 117.896 169.111 120.704 169.111 124.304C169.111 127.376 168.511 130.16 167.311 132.656C166.159 135.152 164.455 137.12 162.199 138.56C159.991 139.952 157.375 140.648 154.351 140.648ZM155.143 133.88C156.919 133.88 158.215 132.944 159.031 131.072C159.895 129.2 160.327 127.088 160.327 124.736C160.327 122.96 160.015 121.664 159.391 120.848C158.767 119.984 157.927 119.552 156.871 119.552C155.095 119.552 153.775 120.488 152.911 122.36C152.047 124.232 151.615 126.32 151.615 128.624C151.615 130.4 151.927 131.72 152.551 132.584C153.223 133.448 154.087 133.88 155.143 133.88Z" fill="white"/>
<path d="M35.1918 272.8L30.2238 298H23.6358L26.2278 284.716L17.8398 295.516H14.7078L10.1358 284.716L7.47175 298H0.91975L5.95975 272.8H11.7558L17.6598 287.38L29.1078 272.8H35.1918ZM53.4114 293.104H42.6834L39.7674 298H32.2434L48.4074 272.8H55.4274L61.5114 298H54.4194L53.4114 293.104ZM52.3314 287.848L50.6394 279.676L45.8154 287.848H52.3314ZM89.5242 280.828C89.5242 283.132 88.9122 285.124 87.6882 286.804C86.4642 288.46 84.7482 289.672 82.5402 290.44L86.8242 298H79.3722L75.6282 291.304H72.0282L70.6962 298H63.5682L68.6082 272.8H79.3722C82.5882 272.8 85.0842 273.508 86.8602 274.924C88.6362 276.34 89.5242 278.308 89.5242 280.828ZM82.3242 281.512C82.3242 280.48 81.9762 279.712 81.2802 279.208C80.5842 278.68 79.6122 278.416 78.3642 278.416H74.6202L73.1082 285.796H77.3562C78.9402 285.796 80.1642 285.424 81.0282 284.68C81.8922 283.936 82.3242 282.88 82.3242 281.512ZM107.029 284.392L115.489 298H107.533L101.737 288.928L98.4606 291.88L97.2366 298H90.2166L95.2566 272.8H102.277L100.225 283.096L111.601 272.8H119.989L107.029 284.392ZM128.231 278.308L127.403 282.556H138.599L137.555 287.884H126.323L125.423 292.492H138.635L137.483 298H117.287L122.327 272.8H142.055L140.939 278.308H128.231ZM150.726 278.452H142.986L144.138 272.8H166.71L165.558 278.452H157.854L153.93 298H146.802L150.726 278.452ZM169.366 272.8H176.494L171.454 298H164.326L169.366 272.8ZM205.505 272.8L200.465 298H194.597L186.281 284.176L183.509 298H176.525L181.565 272.8H187.433L195.785 286.588L198.521 272.8H205.505ZM225.041 284.86H231.341L229.217 295.48C227.921 296.464 226.409 297.22 224.681 297.748C222.977 298.252 221.177 298.504 219.281 298.504C216.737 298.504 214.505 298.048 212.585 297.136C210.689 296.2 209.213 294.892 208.157 293.212C207.125 291.532 206.609 289.6 206.609 287.416C206.609 284.512 207.281 281.92 208.625 279.64C209.969 277.336 211.853 275.536 214.277 274.24C216.701 272.944 219.485 272.296 222.629 272.296C227.621 272.296 231.281 273.844 233.609 276.94L228.497 280.972C227.681 279.964 226.781 279.256 225.797 278.848C224.813 278.416 223.649 278.2 222.305 278.2C220.601 278.2 219.101 278.584 217.805 279.352C216.533 280.096 215.549 281.128 214.853 282.448C214.157 283.768 213.809 285.268 213.809 286.948C213.809 288.676 214.373 290.056 215.501 291.088C216.629 292.096 218.213 292.6 220.253 292.6C221.477 292.6 222.593 292.396 223.601 291.988L225.041 284.86Z" fill="white"/>
</svg>
