<svg width="229" height="307" viewBox="0 0 229 307" fill="none" xmlns="http://www.w3.org/2000/svg">
<circle cx="114.5" cy="114.5" r="114.5" fill="white"/>
<path d="M57.2 88.592C61.328 88.592 64.952 89.384 68.072 90.968C71.24 92.504 73.712 94.808 75.488 97.88C77.264 100.952 78.152 104.696 78.152 109.112C78.152 114.296 77.024 119.336 74.768 124.232C72.512 129.08 69.008 133.088 64.256 136.256C59.552 139.424 53.744 141.008 46.832 141.008C43.808 141.008 40.976 140.672 38.336 140C35.696 139.376 33.536 138.488 31.856 137.336L38.336 127.256C40.736 128.888 43.832 129.704 47.624 129.704C51.56 129.704 54.752 128.696 57.2 126.68C59.648 124.616 61.352 121.856 62.312 118.4C59.768 120.608 56.504 121.712 52.52 121.712C49.544 121.712 46.784 121.16 44.24 120.056C41.744 118.904 39.752 117.224 38.264 115.016C36.776 112.808 36.032 110.192 36.032 107.168C36.032 103.424 36.944 100.16 38.768 97.376C40.592 94.544 43.088 92.384 46.256 90.896C49.472 89.36 53.12 88.592 57.2 88.592ZM56.48 111.488C58.64 111.488 60.416 110.864 61.808 109.616C63.2 108.368 63.896 106.736 63.896 104.72C63.896 102.992 63.32 101.576 62.168 100.472C61.016 99.32 59.408 98.744 57.344 98.744C55.232 98.744 53.48 99.392 52.088 100.688C50.744 101.936 50.072 103.64 50.072 105.8C50.072 107.576 50.648 108.968 51.8 109.976C52.952 110.984 54.512 111.488 56.48 111.488ZM102.734 141.008C96.9258 141.008 92.3178 139.304 88.9098 135.896C85.5498 132.44 83.8698 127.664 83.8698 121.568C83.8698 115.424 84.9978 109.856 87.2538 104.864C89.5578 99.824 92.7498 95.864 96.8298 92.984C100.91 90.056 105.518 88.592 110.654 88.592C116.462 88.592 121.046 90.32 124.406 93.776C127.814 97.184 129.518 101.936 129.518 108.032C129.518 114.176 128.366 119.768 126.062 124.808C123.806 129.8 120.638 133.76 116.558 136.688C112.478 139.568 107.87 141.008 102.734 141.008ZM104.102 129.344C106.406 129.344 108.398 128.216 110.078 125.96C111.758 123.704 113.03 120.944 113.894 117.68C114.758 114.416 115.19 111.32 115.19 108.392C115.19 105.608 114.662 103.568 113.606 102.272C112.598 100.928 111.158 100.256 109.286 100.256C106.982 100.256 104.99 101.384 103.31 103.64C101.63 105.896 100.358 108.656 99.4938 111.92C98.6298 115.184 98.1978 118.28 98.1978 121.208C98.1978 126.632 100.166 129.344 104.102 129.344ZM148.711 116.888C145.255 116.888 142.471 115.856 140.359 113.792C138.295 111.728 137.263 108.896 137.263 105.296C137.263 102.224 137.863 99.44 139.063 96.944C140.263 94.448 141.967 92.504 144.175 91.112C146.431 89.672 149.047 88.952 152.023 88.952C155.479 88.952 158.239 89.984 160.303 92.048C162.415 94.112 163.471 96.944 163.471 100.544C163.471 103.616 162.871 106.4 161.671 108.896C160.519 111.392 158.815 113.36 156.559 114.8C154.351 116.192 151.735 116.888 148.711 116.888ZM182.263 89.6H193.135L149.287 140H138.343L182.263 89.6ZM149.503 110.048C151.279 110.048 152.599 109.136 153.463 107.312C154.327 105.44 154.759 103.328 154.759 100.976C154.759 99.2 154.423 97.904 153.751 97.088C153.127 96.224 152.287 95.792 151.231 95.792C149.455 95.792 148.135 96.728 147.271 98.6C146.407 100.424 145.975 102.512 145.975 104.864C145.975 106.64 146.287 107.96 146.911 108.824C147.583 109.64 148.447 110.048 149.503 110.048ZM179.527 140.648C176.071 140.648 173.287 139.64 171.175 137.624C169.111 135.56 168.079 132.704 168.079 129.056C168.079 125.984 168.655 123.224 169.807 120.776C171.007 118.28 172.711 116.336 174.919 114.944C177.175 113.504 179.815 112.784 182.839 112.784C186.295 112.784 189.055 113.816 191.119 115.88C193.231 117.896 194.287 120.704 194.287 124.304C194.287 127.376 193.687 130.16 192.487 132.656C191.335 135.152 189.631 137.12 187.375 138.56C185.167 139.952 182.551 140.648 179.527 140.648ZM180.319 133.88C182.095 133.88 183.391 132.944 184.207 131.072C185.071 129.2 185.503 127.088 185.503 124.736C185.503 122.96 185.191 121.664 184.567 120.848C183.943 119.984 183.103 119.552 182.047 119.552C180.271 119.552 178.951 120.488 178.087 122.36C177.223 124.232 176.791 126.32 176.791 128.624C176.791 130.4 177.103 131.72 177.727 132.584C178.399 133.448 179.263 133.88 180.319 133.88Z" fill="black"/>
<path d="M22.9793 272.8H30.1073L26.2193 292.348H38.2433L37.0913 298H17.9393L22.9793 272.8ZM44.9519 272.8H52.0799L47.0399 298H39.9119L44.9519 272.8ZM73.2072 299.008C73.9032 299.008 74.5992 298.852 75.2952 298.54C75.9912 298.252 76.6152 297.844 77.1672 297.316L79.7952 301.528C78.9312 302.368 77.8752 303.004 76.6272 303.436C75.4032 303.868 74.0592 304.084 72.5952 304.084C67.9872 304.084 64.5432 302.116 62.2632 298.18C59.4312 297.58 57.2112 296.32 55.6032 294.4C53.9952 292.48 53.1912 290.152 53.1912 287.416C53.1912 284.536 53.8512 281.944 55.1712 279.64C56.5152 277.336 58.3752 275.536 60.7512 274.24C63.1512 272.944 65.8752 272.296 68.9232 272.296C71.4672 272.296 73.6752 272.764 75.5472 273.7C77.4432 274.636 78.8952 275.944 79.9032 277.624C80.9352 279.304 81.4512 281.224 81.4512 283.384C81.4512 285.736 80.9952 287.908 80.0832 289.9C79.1952 291.868 77.9352 293.536 76.3032 294.904C74.6712 296.272 72.7512 297.256 70.5432 297.856C70.9032 298.264 71.2872 298.552 71.6952 298.72C72.1272 298.912 72.6312 299.008 73.2072 299.008ZM68.3112 278.2C66.7272 278.2 65.3352 278.596 64.1352 279.388C62.9352 280.18 62.0112 281.248 61.3632 282.592C60.7152 283.912 60.3912 285.376 60.3912 286.984C60.3912 288.688 60.9072 290.056 61.9392 291.088C62.9952 292.096 64.4592 292.6 66.3312 292.6C67.9152 292.6 69.3072 292.204 70.5072 291.412C71.7072 290.62 72.6312 289.564 73.2792 288.244C73.9272 286.9 74.2512 285.424 74.2512 283.816C74.2512 282.112 73.7232 280.756 72.6672 279.748C71.6352 278.716 70.1832 278.2 68.3112 278.2ZM94.8325 298.504C92.6485 298.504 90.7645 298.144 89.1805 297.424C87.5965 296.68 86.3845 295.624 85.5445 294.256C84.7045 292.888 84.2845 291.28 84.2845 289.432C84.2845 288.664 84.3805 287.776 84.5725 286.768L87.3805 272.8H94.5085L91.7365 286.66C91.5925 287.38 91.5205 288.04 91.5205 288.64C91.5205 291.28 92.9125 292.6 95.6965 292.6C97.2085 292.6 98.3965 292.144 99.2605 291.232C100.148 290.296 100.808 288.772 101.24 286.66L104.012 272.8H111.032L108.188 287.092C106.652 294.7 102.2 298.504 94.8325 298.504ZM115.897 272.8H123.025L117.985 298H110.857L115.897 272.8ZM128.096 272.8H139.04C141.632 272.8 143.876 273.232 145.772 274.096C147.668 274.936 149.12 276.16 150.128 277.768C151.16 279.352 151.676 281.224 151.676 283.384C151.676 286.312 151.004 288.88 149.66 291.088C148.34 293.296 146.492 295 144.116 296.2C141.74 297.4 139.016 298 135.944 298H123.056L128.096 272.8ZM136.16 292.312C137.888 292.312 139.376 291.952 140.624 291.232C141.896 290.488 142.856 289.48 143.504 288.208C144.152 286.912 144.476 285.448 144.476 283.816C144.476 282.112 143.948 280.804 142.892 279.892C141.836 278.956 140.288 278.488 138.248 278.488H134.072L131.336 292.312H136.16ZM157.839 272.8H164.967L159.927 298H152.799L157.839 272.8ZM174.25 278.452H166.51L167.662 272.8H190.234L189.082 278.452H181.378L177.454 298H170.326L174.25 278.452ZM202.516 289.072L200.752 298H193.624L195.424 288.892L189.016 272.8H196.18L200.14 282.844L208.204 272.8H215.44L202.516 289.072Z" fill="white"/>
</svg>
