<svg width="114" height="114" viewBox="0 0 114 114" fill="none" xmlns="http://www.w3.org/2000/svg">
<g filter="url(#filter0_f_55_205)">
<path fill-rule="evenodd" clip-rule="evenodd" d="M69.5121 19.7536L97.0392 71.1658C102.162 80.7333 95.2302 92.3072 84.3777 92.3072H29.3235C18.4709 92.3072 11.5393 80.7333 16.662 71.1658L44.1891 19.7536C49.6025 9.64298 64.0987 9.64302 69.5121 19.7536ZM65.0278 22.1546C61.5317 15.6248 52.1695 15.6248 48.6734 22.1546L21.1463 73.5667C17.8379 79.7458 22.3146 87.2206 29.3235 87.2206H84.3777C91.3866 87.2206 95.8633 79.7458 92.5549 73.5668L65.0278 22.1546Z" fill="white"/>
</g>
<g filter="url(#filter1_f_55_205)">
<path fill-rule="evenodd" clip-rule="evenodd" d="M34.473 24.1581C32.9631 24.6353 31.9958 25.3467 31.2148 26.5544C29.7013 28.8946 29.4108 32.6214 30.2692 38.6844L30.5183 40.4433L29.882 41.4194C29.0276 42.7298 27.4473 46.0003 26.8738 47.6447C26.2656 49.3883 25.7452 51.485 25.4105 53.5394C25.0752 55.5966 25.0365 60.5266 25.3389 62.6505C26.8387 73.1858 33.5124 82.3461 43.0618 86.9772C46.1083 88.4547 48.8254 89.3077 52.1207 89.8212C54.1415 90.1361 59.8034 90.1454 61.8492 89.8373C72.1057 88.2921 81.1457 81.6151 85.7104 72.2133C87.1971 69.1512 88.0187 66.5297 88.5894 63.027C88.9246 60.9698 88.9634 56.0398 88.6609 53.9159C88.0799 49.8343 86.4694 45.2726 84.4343 41.9436L83.7898 40.8894L84.1441 38.5552C84.6124 35.4692 84.6529 30.6018 84.223 29.0784C83.4222 26.2405 81.8964 24.7817 79.3181 24.3887C76.4278 23.9482 73.0473 25.1587 69.8032 27.796L68.8191 28.596L67.5683 28.1537C64.1486 26.9443 61.0804 26.4429 57.0753 26.4395C52.9491 26.4359 49.7642 26.9471 46.5024 28.1368L45.2841 28.5812L44.2483 27.749C40.4058 24.6615 36.9252 23.383 34.473 24.1581ZM62.3491 40.2069C63.7809 40.5284 63.8906 40.5813 64.5505 41.2688C64.9324 41.6666 65.6105 42.1818 66.0573 42.4134L66.8696 42.8347L65.7874 42.9488C63.6598 43.1732 62.049 43.9161 60.7783 45.2588C58.743 47.4096 58.371 50.4784 59.8915 52.5762C60.1923 52.9911 60.3085 53.2794 60.2221 53.3961C60.1489 53.495 59.8516 53.8802 59.5615 54.2518L59.0341 54.9275L57.3052 55.0204C55.9045 55.0957 55.5537 55.0731 55.4575 54.9013C55.3923 54.7847 55.042 54.3418 54.6791 53.9168L54.0193 53.1443L54.5125 52.4118C56.3029 49.7529 55.0683 45.8038 51.8603 43.9272C50.7621 43.2851 48.9531 42.8925 47.3527 42.9494C45.8406 43.0032 45.8356 42.9517 47.2809 42.2113C47.6953 41.9992 48.2441 41.6657 48.5006 41.4704C48.757 41.2751 49.1351 41.1153 49.3406 41.1153C49.5461 41.1153 50.184 40.9561 50.7579 40.7616C51.6757 40.4504 53.4484 40.0539 54.815 39.8539C55.0637 39.8175 56.5215 39.8059 58.0547 39.8282C60.2889 39.8605 61.1414 39.9357 62.3491 40.2069ZM48.5617 48.1382C48.5617 48.3564 48.4829 48.7979 48.3865 49.1195C48.2385 49.6128 48.1623 49.689 47.8968 49.6075C47.4545 49.472 47.453 49.4681 47.6432 48.9231C48.0181 47.8483 48.5617 47.3837 48.5617 48.1382ZM66.4713 48.5391C66.8541 49.303 66.8197 49.6993 66.3708 49.6993C66.0663 49.6993 65.7395 48.8844 65.7395 48.1257C65.7395 47.5293 66.0546 47.7072 66.4713 48.5391ZM40.8751 49.4193C40.9812 49.7556 40.9244 49.8908 40.5075 50.2946L40.0146 50.7721L40.2283 49.8968C40.5295 48.6624 40.5922 48.5097 40.6803 48.7957C40.7186 48.9199 40.8063 49.2005 40.8751 49.4193ZM73.7256 49.7923C73.7256 49.9166 73.6578 49.9763 73.575 49.9251C73.4921 49.8739 73.4243 49.7304 73.4243 49.6062C73.4243 49.4819 73.4921 49.4222 73.575 49.4734C73.6578 49.5246 73.7256 49.6681 73.7256 49.7923ZM38.955 53.8896C38.8319 55.6085 39.447 57.2837 40.6286 58.4475L41.3025 59.1115H39.3444H37.3863L37.4852 58.2832C37.6405 56.9864 38.0113 55.4576 38.4989 54.1042C38.7451 53.4209 38.9651 52.8618 38.9875 52.8618C39.0102 52.8618 38.9954 53.3242 38.955 53.8896ZM76.2214 55.2991C76.6457 56.5459 77.0406 58.5092 77.0406 59.3716C77.0406 59.9241 77.012 59.9672 76.7016 59.883C75.9976 59.6923 73.915 59.6214 72.985 59.7563C72.2705 59.8601 72.0793 59.8532 72.2517 59.73C72.38 59.6383 72.7946 59.3469 73.1729 59.0823C74.5431 58.1246 75.5281 56.2017 75.5383 54.4648C75.5439 53.5342 75.6755 53.6949 76.2214 55.2991ZM41.0692 67.1037C42.2554 67.4109 43.5641 68.0731 44.8324 69.0076C45.6643 69.6205 45.8495 69.8331 45.8495 70.1756C45.8495 70.4058 45.9482 70.8737 46.0688 71.2154C46.1894 71.5571 46.2337 71.8368 46.1671 71.8368C45.9721 71.8368 43.4244 70.2036 42.6851 69.6047C41.2008 68.402 39.7254 66.8671 40.0539 66.8671C40.1097 66.8671 40.5665 66.9736 41.0692 67.1037ZM74.479 67.601C74.479 67.6733 73.9648 68.2207 73.3361 68.8175C72.2378 69.8601 70.4091 71.1566 69.1188 71.8073L68.5053 72.1169L68.775 71.3368C68.9232 70.9078 69.0468 70.4391 69.0495 70.2955C69.0557 69.9702 70.5242 68.796 71.5695 68.2803C72.8092 67.6691 74.479 67.279 74.479 67.601Z" fill="white"/>
</g>
<path fill-rule="evenodd" clip-rule="evenodd" d="M69.5121 19.7536L97.0392 71.1658C102.162 80.7333 95.2302 92.3072 84.3777 92.3072H29.3235C18.4709 92.3072 11.5393 80.7333 16.662 71.1658L44.1891 19.7536C49.6025 9.64298 64.0987 9.64302 69.5121 19.7536ZM65.0278 22.1546C61.5317 15.6248 52.1695 15.6248 48.6734 22.1546L21.1463 73.5667C17.8379 79.7458 22.3146 87.2206 29.3235 87.2206H84.3777C91.3866 87.2206 95.8633 79.7458 92.5549 73.5668L65.0278 22.1546Z" fill="white"/>
<path fill-rule="evenodd" clip-rule="evenodd" d="M34.473 24.1581C32.9631 24.6353 31.9958 25.3467 31.2148 26.5544C29.7013 28.8946 29.4108 32.6214 30.2692 38.6844L30.5183 40.4433L29.882 41.4194C29.0276 42.7298 27.4473 46.0003 26.8738 47.6447C26.2656 49.3883 25.7452 51.485 25.4105 53.5394C25.0752 55.5966 25.0365 60.5266 25.3389 62.6505C26.8387 73.1858 33.5124 82.3461 43.0618 86.9772C46.1083 88.4547 48.8254 89.3077 52.1207 89.8212C54.1415 90.1361 59.8034 90.1454 61.8492 89.8373C72.1057 88.2921 81.1457 81.6151 85.7104 72.2133C87.1971 69.1512 88.0187 66.5297 88.5894 63.027C88.9246 60.9698 88.9634 56.0398 88.6609 53.9159C88.0799 49.8343 86.4694 45.2726 84.4343 41.9436L83.7898 40.8894L84.1441 38.5552C84.6124 35.4692 84.6529 30.6018 84.223 29.0784C83.4222 26.2405 81.8964 24.7817 79.3181 24.3887C76.4278 23.9482 73.0473 25.1587 69.8032 27.796L68.8191 28.596L67.5683 28.1537C64.1486 26.9443 61.0804 26.4429 57.0753 26.4395C52.9491 26.4359 49.7642 26.9471 46.5024 28.1368L45.2841 28.5812L44.2483 27.749C40.4058 24.6615 36.9252 23.383 34.473 24.1581ZM62.3491 40.2069C63.7809 40.5284 63.8906 40.5813 64.5505 41.2688C64.9324 41.6666 65.6105 42.1818 66.0573 42.4134L66.8696 42.8347L65.7874 42.9488C63.6598 43.1732 62.049 43.9161 60.7783 45.2588C58.743 47.4096 58.371 50.4784 59.8915 52.5762C60.1923 52.9911 60.3085 53.2794 60.2221 53.3961C60.1489 53.495 59.8516 53.8802 59.5615 54.2518L59.0341 54.9275L57.3052 55.0204C55.9045 55.0957 55.5537 55.0731 55.4575 54.9013C55.3923 54.7847 55.042 54.3418 54.6791 53.9168L54.0193 53.1443L54.5125 52.4118C56.3029 49.7529 55.0683 45.8038 51.8603 43.9272C50.7621 43.2851 48.9531 42.8925 47.3527 42.9494C45.8406 43.0032 45.8356 42.9517 47.2809 42.2113C47.6953 41.9992 48.2441 41.6657 48.5006 41.4704C48.757 41.2751 49.1351 41.1153 49.3406 41.1153C49.5461 41.1153 50.184 40.9561 50.7579 40.7616C51.6757 40.4504 53.4484 40.0539 54.815 39.8539C55.0637 39.8175 56.5215 39.8059 58.0547 39.8282C60.2889 39.8605 61.1414 39.9357 62.3491 40.2069ZM48.5617 48.1382C48.5617 48.3564 48.4829 48.7979 48.3865 49.1195C48.2385 49.6128 48.1623 49.689 47.8968 49.6075C47.4545 49.472 47.453 49.4681 47.6432 48.9231C48.0181 47.8483 48.5617 47.3837 48.5617 48.1382ZM66.4713 48.5391C66.8541 49.303 66.8197 49.6993 66.3708 49.6993C66.0663 49.6993 65.7395 48.8844 65.7395 48.1257C65.7395 47.5293 66.0546 47.7072 66.4713 48.5391ZM40.8751 49.4193C40.9812 49.7556 40.9244 49.8908 40.5075 50.2946L40.0146 50.7721L40.2283 49.8968C40.5295 48.6624 40.5922 48.5097 40.6803 48.7957C40.7186 48.9199 40.8063 49.2005 40.8751 49.4193ZM73.7256 49.7923C73.7256 49.9166 73.6578 49.9763 73.575 49.9251C73.4921 49.8739 73.4243 49.7304 73.4243 49.6062C73.4243 49.4819 73.4921 49.4222 73.575 49.4734C73.6578 49.5246 73.7256 49.6681 73.7256 49.7923ZM38.955 53.8896C38.8319 55.6085 39.447 57.2837 40.6286 58.4475L41.3025 59.1115H39.3444H37.3863L37.4852 58.2832C37.6405 56.9864 38.0113 55.4576 38.4989 54.1042C38.7451 53.4209 38.9651 52.8618 38.9875 52.8618C39.0102 52.8618 38.9954 53.3242 38.955 53.8896ZM76.2214 55.2991C76.6457 56.5459 77.0406 58.5092 77.0406 59.3716C77.0406 59.9241 77.012 59.9672 76.7016 59.883C75.9976 59.6923 73.915 59.6214 72.985 59.7563C72.2705 59.8601 72.0793 59.8532 72.2517 59.73C72.38 59.6383 72.7946 59.3469 73.1729 59.0823C74.5431 58.1246 75.5281 56.2017 75.5383 54.4648C75.5439 53.5342 75.6755 53.6949 76.2214 55.2991ZM41.0692 67.1037C42.2554 67.4109 43.5641 68.0731 44.8324 69.0076C45.6643 69.6205 45.8495 69.8331 45.8495 70.1756C45.8495 70.4058 45.9482 70.8737 46.0688 71.2154C46.1894 71.5571 46.2337 71.8368 46.1671 71.8368C45.9721 71.8368 43.4244 70.2036 42.6851 69.6047C41.2008 68.402 39.7254 66.8671 40.0539 66.8671C40.1097 66.8671 40.5665 66.9736 41.0692 67.1037ZM74.479 67.601C74.479 67.6733 73.9648 68.2207 73.3361 68.8175C72.2378 69.8601 70.4091 71.1566 69.1188 71.8073L68.5053 72.1169L68.775 71.3368C68.9232 70.9078 69.0468 70.4391 69.0495 70.2955C69.0557 69.9702 70.5242 68.796 71.5695 68.2803C72.8092 67.6691 74.479 67.279 74.479 67.601Z" fill="white"/>
<circle cx="56.8502" cy="58.0472" r="27.6268" fill="#FC2321" stroke="black" stroke-width="0.4"/>
<path d="M65.514 36.9729C58.8636 34.7626 52.3235 35.9265 49.259 36.9913C48.8636 37.1287 48.4236 37.0334 48.1375 36.7279C44.5397 32.8864 37.7422 26.3932 34.9951 28.1101C32.1815 29.8686 34.5927 42.1535 36.3799 48.3737C36.4512 48.6217 36.4193 48.8932 36.3034 49.1237C26.2448 69.113 45.7576 77.4153 56.9851 79.1034C57.0877 79.1188 57.1936 79.1164 57.296 79.099C85.2312 74.3581 82.517 57.475 77.4567 49.1905C77.2875 48.9134 77.2562 48.58 77.3716 48.2765C79.8803 41.6797 81.8954 28.8728 78.8297 28.2597C74.3349 27.3607 69.1807 33.0733 66.7102 36.5815C66.4426 36.9614 65.955 37.1194 65.514 36.9729Z" fill="#FFA509" stroke="black" stroke-width="0.4"/>
<path d="M47.1259 65.6098C41.381 61.2073 36.2046 62.693 34.2598 64.0316C36.2926 71.0448 43.1131 75.2983 49.3262 77.5847C54.3566 79.4358 59.9141 79.307 64.9794 77.5537C75.4211 73.9394 79.0992 68.3777 79.5905 65.6098C75.5212 61.4453 70.0157 63.8746 67.7716 65.6098C59.633 52.9973 50.6167 60.3546 47.1259 65.6098Z" fill="white" stroke="black" stroke-width="0.4"/>
<path d="M36.6379 31.4924C34.1703 32.6769 35.6032 38.8947 37.1604 43.4159C37.4652 44.3008 38.855 44.3167 39.4068 43.5607C40.9693 41.4196 43.3916 39.7283 45.1519 38.7606C45.6964 38.4613 45.8879 37.7584 45.4805 37.2892C43.043 34.482 37.9786 30.8489 36.6379 31.4924Z" fill="#FF8104" stroke="black" stroke-width="0.4"/>
<path d="M57.4124 60.8866C52.5343 60.4689 53.2639 65.7865 57.3996 66.418C57.4314 66.4229 57.4659 66.4221 57.4975 66.4162C62.3666 65.4955 61.6278 60.323 57.4841 60.8849C57.461 60.888 57.4355 60.8886 57.4124 60.8866Z" fill="black"/>
<path d="M58.0008 68.1853L58.2876 66.4748C58.3182 66.2923 58.1776 66.1261 57.9926 66.1261H56.9144C56.7261 66.1261 56.5846 66.298 56.6208 66.4829L56.9531 68.1772C56.9894 68.3621 56.8479 68.534 56.6595 68.534H56.5869C56.4216 68.534 56.2877 68.668 56.2877 68.8332V69.0911C56.2877 69.1926 56.2054 69.2749 56.1038 69.2749C56.0023 69.2749 55.92 69.3579 55.92 69.4595C55.92 69.5618 55.837 69.6454 55.7347 69.6454H52.4281C52.3258 69.6454 52.2429 69.5624 52.2429 69.4601C52.2429 69.3578 52.16 69.2749 52.0577 69.2749H49.9468C49.7933 69.2749 49.6689 69.3993 49.6689 69.5528V69.6171C49.6689 69.735 49.7645 69.8306 49.8824 69.8306C49.9745 69.8306 50.0562 69.8896 50.0851 69.977L50.5412 71.3556C50.5708 71.445 50.6408 71.5153 50.73 71.5453L51.0327 71.6469C51.1017 71.6701 51.1599 71.7176 51.1964 71.7806L51.8686 72.9416C52.0219 73.2064 52.4267 73.0976 52.4267 72.7917V70.9477C52.4267 70.7082 52.694 70.5658 52.8928 70.6993L52.9026 70.7059C52.952 70.739 53.01 70.7567 53.0695 70.7567H60.2079C60.2876 70.7567 60.364 70.7249 60.4202 70.6683L60.6124 70.4747C60.6686 70.4181 60.745 70.3863 60.8247 70.3863H62.0708C62.23 70.3863 62.3613 70.5109 62.3697 70.6699L62.4696 72.5829C62.4862 72.9013 62.923 72.9763 63.0449 72.6816L63.4005 71.8219C63.4366 71.7344 63.5121 71.6692 63.6039 71.6461L64.0141 71.5428C64.124 71.5151 64.2088 71.4277 64.2332 71.3171L64.5258 69.9906C64.5464 69.8971 64.6292 69.8306 64.7249 69.8306C64.8375 69.8306 64.9288 69.7393 64.9288 69.6267V69.5528C64.9288 69.3993 64.8044 69.2749 64.6509 69.2749H62.5401C62.4378 69.2749 62.3548 69.3578 62.3548 69.4601C62.3548 69.5624 62.2719 69.6454 62.1696 69.6454H59.5072C59.3537 69.6454 59.2293 69.5199 59.2293 69.3665C59.2293 69.2142 59.1059 69.0897 58.9535 69.0897C58.8012 69.0897 58.6778 68.9652 58.6778 68.8129C58.6778 68.6594 58.5534 68.534 58.3999 68.534H58.2959C58.1109 68.534 57.9702 68.3678 58.0008 68.1853Z" fill="black"/>
<path d="M57.4485 61.0394C56.772 61.0394 55.9429 61.0618 55.2842 61.3564C54.9586 61.5021 54.6796 61.7123 54.4811 62.0162C54.2826 62.32 54.1571 62.7287 54.1571 63.2835C54.1571 64.0482 54.5365 64.6093 55.0611 65.0796C55.3242 65.3155 55.621 65.5258 55.9209 65.7257C56.0201 65.7919 56.1205 65.8574 56.22 65.9223C56.4175 66.0512 56.6118 66.1781 56.7874 66.3035L56.6135 66.547C56.4428 66.425 56.2579 66.3044 56.064 66.1778C55.9632 66.1121 55.8599 66.0447 55.7549 65.9747C55.4516 65.7725 55.1406 65.5527 54.8614 65.3024C54.3014 64.8003 53.8579 64.1646 53.8579 63.2835C53.8579 62.6825 53.9943 62.2142 54.2306 61.8525C54.4668 61.4909 54.7957 61.2471 55.162 61.0833C55.8871 60.759 56.7785 60.7402 57.4485 60.7402C58.1185 60.7402 59.0099 60.759 59.735 61.0833C60.1013 61.2471 60.4301 61.4909 60.6664 61.8525C60.9026 62.2142 61.039 62.6825 61.039 63.2835C61.039 64.1646 60.5956 64.8003 60.0355 65.3024C59.7563 65.5527 59.4453 65.7725 59.1421 65.9747C59.0371 66.0447 58.9338 66.1121 58.833 66.1778C58.639 66.3044 58.4542 66.425 58.2835 66.547L58.1095 66.3035C58.2851 66.1781 58.4794 66.0513 58.6769 65.9224C58.7764 65.8574 58.8769 65.7918 58.9761 65.7257C59.2759 65.5258 59.5727 65.3155 59.8358 65.0796C60.3604 64.6093 60.7398 64.0482 60.7398 63.2835C60.7398 62.7287 60.6144 62.32 60.4159 62.0162C60.2173 61.7123 59.9384 61.5021 59.6128 61.3564C58.954 61.0618 58.1249 61.0394 57.4485 61.0394Z" fill="black"/>
<path d="M45.6891 49.3994C45.6095 49.3527 45.5348 49.3062 45.4647 49.2599C42.7918 47.4912 50.496 46.0315 51.3392 49.1237C51.7533 50.6422 50.5963 51.0137 49.0525 50.7069C48.1099 50.5197 46.9474 50.136 45.6891 49.3994Z" fill="white" stroke="black" stroke-width="0.4"/>
<path d="M68.3109 49.3994C68.3905 49.3527 68.4652 49.3062 68.5353 49.2599C71.2082 47.4912 63.504 46.0315 62.6608 49.1237C62.2467 50.6422 63.4037 51.0137 64.9475 50.7069C65.8901 50.5197 67.0526 50.136 68.3109 49.3994Z" fill="white" stroke="black" stroke-width="0.4"/>
<path d="M76.5984 31.7915C79.066 32.976 77.6331 39.1938 76.0759 43.7149C75.7711 44.5998 74.3813 44.6157 73.8296 43.8597C72.267 41.7187 69.8447 40.0274 68.0844 39.0596C67.5399 38.7603 67.3485 38.0574 67.7558 37.5883C70.1933 34.781 75.2578 31.148 76.5984 31.7915Z" fill="#FF8104" stroke="black" stroke-width="0.4"/>
<path d="M36.112 31.8186C35.9805 31.9557 36.0789 32.1619 36.2617 32.2136C40.3997 33.3858 42.5947 37.271 43.4276 39.4238C43.4994 39.6096 43.7265 39.6818 43.8929 39.5723C44.647 39.0762 45.4302 38.664 45.9528 38.4307C46.1502 38.3425 46.2123 38.075 46.0673 37.9146C39.8953 31.0866 37.0056 30.8864 36.112 31.8186Z" fill="#FFB42F" stroke="black" stroke-width="0.4"/>
<path d="M76.999 32.1458C77.1252 32.2849 77.0272 32.4878 76.847 32.5404C72.8356 33.7118 70.7046 37.585 69.8928 39.7394C69.8216 39.9284 69.5902 40.0015 69.4242 39.8863C69.0564 39.6309 68.6819 39.3866 68.3363 39.1742C67.7307 38.802 67.5371 37.8823 68.0159 37.3569C73.5454 31.2892 76.1688 31.2309 76.999 32.1458Z" fill="#FFB42F" stroke="black" stroke-width="0.4"/>
<path d="M46.0194 52.9383C49.7659 54.0977 51.5476 55.855 52.2272 57.1271C52.4841 57.608 52.1245 58.1243 51.5806 58.1622C48.351 58.3873 45.5219 57.0681 43.941 55.9807C43.3833 55.5971 42.7781 54.6927 42.7873 54.0159C42.8081 52.4904 44.562 52.4872 46.0194 52.9383Z" fill="black"/>
<path d="M68.1749 52.9383C64.4284 54.0977 62.6467 55.855 61.9671 57.1271C61.7102 57.608 62.0698 58.1243 62.6137 58.1622C65.8433 58.3873 68.6724 57.0681 70.2534 55.9807C70.811 55.5971 71.4163 54.6927 71.407 54.0159C71.3862 52.4904 69.6324 52.4872 68.1749 52.9383Z" fill="black"/>
<path d="M59.1165 71.2126H56.1631C55.842 71.2126 55.6666 71.5872 55.8722 71.8339C56.0013 71.9888 56.2291 72.0154 56.3904 71.8944L56.427 71.8669C56.5871 71.7469 56.809 71.7541 56.961 71.8843L57.2505 72.1325C57.5313 72.3732 57.9502 72.3571 58.2117 72.0956L58.4237 71.8836C58.5512 71.7561 58.7553 71.7436 58.8995 71.8517C59.0773 71.9851 59.3358 71.9272 59.4352 71.7284C59.5537 71.4914 59.3814 71.2126 59.1165 71.2126Z" fill="black"/>
<defs>
<filter id="filter0_f_55_205" x="10.9414" y="8.17065" width="91.8184" height="88.1365" filterUnits="userSpaceOnUse" color-interpolation-filters="sRGB">
<feFlood flood-opacity="0" result="BackgroundImageFix"/>
<feBlend mode="normal" in="SourceGraphic" in2="BackgroundImageFix" result="shape"/>
<feGaussianBlur stdDeviation="2" result="effect1_foregroundBlur_55_205"/>
</filter>
<filter id="filter1_f_55_205" x="21.1338" y="19.937" width="71.7324" height="74.126" filterUnits="userSpaceOnUse" color-interpolation-filters="sRGB">
<feFlood flood-opacity="0" result="BackgroundImageFix"/>
<feBlend mode="normal" in="SourceGraphic" in2="BackgroundImageFix" result="shape"/>
<feGaussianBlur stdDeviation="2" result="effect1_foregroundBlur_55_205"/>
</filter>
</defs>
</svg>
