<svg width="411" height="411" viewBox="0 0 411 411" fill="none" xmlns="http://www.w3.org/2000/svg">
<rect x="0.6" y="0.6" width="409.8" height="409.8" fill="black" stroke="black" stroke-width="1.2"/>
<rect x="193.6" y="0.6" width="216.8" height="409.8" fill="#FD0948" stroke="black" stroke-width="1.2"/>
<circle cx="10.5132" cy="10.5132" r="9.91323" fill="white" stroke="black" stroke-width="1.2"/>
<circle cx="193.865" cy="10.5132" r="9.91323" fill="white" stroke="black" stroke-width="1.2"/>
<circle cx="240.964" cy="10.5132" r="9.91323" fill="white" stroke="black" stroke-width="1.2"/>
<circle cx="57.6128" cy="10.5132" r="9.91323" fill="white" stroke="black" stroke-width="1.2"/>
<circle cx="151.812" cy="10.5132" r="9.91323" fill="white" stroke="black" stroke-width="1.2"/>
<circle cx="104.712" cy="10.5132" r="9.91323" fill="white" stroke="black" stroke-width="1.2"/>
<circle cx="13.0372" cy="249.374" r="9.91323" fill="white" stroke="black" stroke-width="1.2"/>
<circle cx="196.388" cy="249.374" r="9.91323" fill="white" stroke="black" stroke-width="1.2"/>
<circle cx="243.487" cy="249.374" r="9.91323" fill="white" stroke="black" stroke-width="1.2"/>
<circle cx="60.1363" cy="249.374" r="9.91323" fill="white" stroke="black" stroke-width="1.2"/>
<circle cx="154.335" cy="249.374" r="9.91323" fill="white" stroke="black" stroke-width="1.2"/>
<circle cx="107.235" cy="249.374" r="9.91323" fill="white" stroke="black" stroke-width="1.2"/>
<circle cx="10.5132" cy="208.162" r="9.91323" fill="white" stroke="black" stroke-width="1.2"/>
<circle cx="193.865" cy="208.162" r="9.91323" fill="white" stroke="black" stroke-width="1.2"/>
<circle cx="240.964" cy="208.162" r="9.91323" fill="white" stroke="black" stroke-width="1.2"/>
<circle cx="57.6128" cy="208.162" r="9.91323" fill="white" stroke="black" stroke-width="1.2"/>
<circle cx="151.812" cy="208.162" r="9.91323" fill="white" stroke="black" stroke-width="1.2"/>
<circle cx="104.712" cy="208.162" r="9.91323" fill="white" stroke="black" stroke-width="1.2"/>
<circle cx="10.5132" cy="175.361" r="9.91323" fill="white" stroke="black" stroke-width="1.2"/>
<circle cx="193.865" cy="175.361" r="9.91323" fill="white" stroke="black" stroke-width="1.2"/>
<circle cx="240.964" cy="175.361" r="9.91323" fill="white" stroke="black" stroke-width="1.2"/>
<circle cx="57.6128" cy="175.361" r="9.91323" fill="white" stroke="black" stroke-width="1.2"/>
<circle cx="151.812" cy="175.361" r="9.91323" fill="white" stroke="black" stroke-width="1.2"/>
<circle cx="104.712" cy="175.361" r="9.91323" fill="white" stroke="black" stroke-width="1.2"/>
<circle cx="10.5132" cy="134.148" r="9.91323" fill="white" stroke="black" stroke-width="1.2"/>
<circle cx="193.865" cy="134.148" r="9.91323" fill="white" stroke="black" stroke-width="1.2"/>
<circle cx="240.964" cy="134.148" r="9.91323" fill="white" stroke="black" stroke-width="1.2"/>
<circle cx="57.6128" cy="134.148" r="9.91323" fill="white" stroke="black" stroke-width="1.2"/>
<circle cx="151.812" cy="134.148" r="9.91323" fill="white" stroke="black" stroke-width="1.2"/>
<circle cx="104.712" cy="134.148" r="9.91323" fill="white" stroke="black" stroke-width="1.2"/>
<circle cx="10.5132" cy="92.9373" r="9.91323" fill="white" stroke="black" stroke-width="1.2"/>
<circle cx="193.865" cy="92.9373" r="9.91323" fill="white" stroke="black" stroke-width="1.2"/>
<circle cx="240.964" cy="92.9373" r="9.91323" fill="white" stroke="black" stroke-width="1.2"/>
<circle cx="57.6128" cy="92.9373" r="9.91323" fill="white" stroke="black" stroke-width="1.2"/>
<circle cx="151.812" cy="92.9373" r="9.91323" fill="white" stroke="black" stroke-width="1.2"/>
<circle cx="104.712" cy="92.9373" r="9.91323" fill="white" stroke="black" stroke-width="1.2"/>
<circle cx="10.5132" cy="51.7251" r="9.91323" fill="white" stroke="black" stroke-width="1.2"/>
<circle cx="193.865" cy="51.7251" r="9.91323" fill="white" stroke="black" stroke-width="1.2"/>
<circle cx="240.964" cy="51.7251" r="9.91323" fill="white" stroke="black" stroke-width="1.2"/>
<circle cx="57.6128" cy="51.7251" r="9.91323" fill="white" stroke="black" stroke-width="1.2"/>
<circle cx="151.812" cy="51.7251" r="9.91323" fill="white" stroke="black" stroke-width="1.2"/>
<circle cx="104.712" cy="51.7251" r="9.91323" fill="white" stroke="black" stroke-width="1.2"/>
<circle cx="10.5132" cy="10.5132" r="9.91323" fill="white" stroke="black" stroke-width="1.2"/>
<circle cx="193.865" cy="10.5132" r="9.91323" fill="white" stroke="black" stroke-width="1.2"/>
<circle cx="240.964" cy="10.5132" r="9.91323" fill="white" stroke="black" stroke-width="1.2"/>
<circle cx="57.6128" cy="10.5132" r="9.91323" fill="white" stroke="black" stroke-width="1.2"/>
<circle cx="151.812" cy="10.5132" r="9.91323" fill="white" stroke="black" stroke-width="1.2"/>
<circle cx="104.712" cy="10.5132" r="9.91323" fill="white" stroke="black" stroke-width="1.2"/>
<circle cx="13.0372" cy="249.374" r="9.91323" fill="white" stroke="black" stroke-width="1.2"/>
<circle cx="196.388" cy="249.374" r="9.91323" fill="white" stroke="black" stroke-width="1.2"/>
<circle cx="243.487" cy="249.374" r="9.91323" fill="white" stroke="black" stroke-width="1.2"/>
<circle cx="60.1363" cy="249.374" r="9.91323" fill="white" stroke="black" stroke-width="1.2"/>
<circle cx="154.335" cy="249.374" r="9.91323" fill="white" stroke="black" stroke-width="1.2"/>
<circle cx="107.235" cy="249.374" r="9.91323" fill="white" stroke="black" stroke-width="1.2"/>
<circle cx="10.5132" cy="208.162" r="9.91323" fill="white" stroke="black" stroke-width="1.2"/>
<circle cx="193.865" cy="208.162" r="9.91323" fill="white" stroke="black" stroke-width="1.2"/>
<circle cx="240.964" cy="208.162" r="9.91323" fill="white" stroke="black" stroke-width="1.2"/>
<circle cx="57.6128" cy="208.162" r="9.91323" fill="white" stroke="black" stroke-width="1.2"/>
<circle cx="151.812" cy="208.162" r="9.91323" fill="white" stroke="black" stroke-width="1.2"/>
<circle cx="104.712" cy="208.162" r="9.91323" fill="white" stroke="black" stroke-width="1.2"/>
<circle cx="10.5132" cy="175.361" r="9.91323" fill="white" stroke="black" stroke-width="1.2"/>
<circle cx="193.865" cy="175.361" r="9.91323" fill="white" stroke="black" stroke-width="1.2"/>
<circle cx="240.964" cy="175.361" r="9.91323" fill="white" stroke="black" stroke-width="1.2"/>
<circle cx="57.6128" cy="175.361" r="9.91323" fill="white" stroke="black" stroke-width="1.2"/>
<circle cx="151.812" cy="175.361" r="9.91323" fill="white" stroke="black" stroke-width="1.2"/>
<circle cx="104.712" cy="175.361" r="9.91323" fill="white" stroke="black" stroke-width="1.2"/>
<circle cx="10.5132" cy="134.148" r="9.91323" fill="white" stroke="black" stroke-width="1.2"/>
<circle cx="193.865" cy="134.148" r="9.91323" fill="white" stroke="black" stroke-width="1.2"/>
<circle cx="240.964" cy="134.148" r="9.91323" fill="white" stroke="black" stroke-width="1.2"/>
<circle cx="57.6128" cy="134.148" r="9.91323" fill="white" stroke="black" stroke-width="1.2"/>
<circle cx="151.812" cy="134.148" r="9.91323" fill="white" stroke="black" stroke-width="1.2"/>
<circle cx="104.712" cy="134.148" r="9.91323" fill="white" stroke="black" stroke-width="1.2"/>
<circle cx="10.5132" cy="92.9373" r="9.91323" fill="white" stroke="black" stroke-width="1.2"/>
<circle cx="193.865" cy="92.9373" r="9.91323" fill="white" stroke="black" stroke-width="1.2"/>
<circle cx="240.964" cy="92.9373" r="9.91323" fill="white" stroke="black" stroke-width="1.2"/>
<circle cx="57.6128" cy="92.9373" r="9.91323" fill="white" stroke="black" stroke-width="1.2"/>
<circle cx="151.812" cy="92.9373" r="9.91323" fill="white" stroke="black" stroke-width="1.2"/>
<circle cx="104.712" cy="92.9373" r="9.91323" fill="white" stroke="black" stroke-width="1.2"/>
<circle cx="10.5132" cy="51.7251" r="9.91323" fill="white" stroke="black" stroke-width="1.2"/>
<circle cx="193.865" cy="51.7251" r="9.91323" fill="white" stroke="black" stroke-width="1.2"/>
<circle cx="240.964" cy="51.7251" r="9.91323" fill="white" stroke="black" stroke-width="1.2"/>
<circle cx="57.6128" cy="51.7251" r="9.91323" fill="white" stroke="black" stroke-width="1.2"/>
<circle cx="151.812" cy="51.7251" r="9.91323" fill="white" stroke="black" stroke-width="1.2"/>
<circle cx="104.712" cy="51.7251" r="9.91323" fill="white" stroke="black" stroke-width="1.2"/>
<circle cx="205.5" cy="205.5" r="144.9" fill="#25A5FC" stroke="black" stroke-width="1.2"/>
<path d="M233.709 150.173C209.705 141.55 185.784 146.423 176.096 150.191C175.706 150.343 175.277 150.25 174.993 149.943C163.313 137.315 139.43 114.026 129.958 119.947C120.416 125.91 128.853 168.092 134.847 188.57C134.919 188.818 134.885 189.086 134.767 189.315C100.045 256.957 166.181 284.882 203.806 290.424C203.909 290.439 204.015 290.437 204.117 290.42C299.046 274.466 288.561 216.707 271.232 189.375C271.058 189.101 271.026 188.777 271.146 188.476C279.729 166.798 286.881 122.531 276.457 120.446C260.759 117.307 242.653 138.298 234.893 149.795C234.633 150.18 234.147 150.33 233.709 150.173Z" fill="#06D954" stroke="black" stroke-width="1.2"/>
<path d="M170.5 245.274C151.3 230.561 134 235.526 127.5 240C136.401 270.707 172.764 285.584 196.047 290.587C201.288 291.713 206.72 291.545 211.947 290.354C260.928 279.201 277.099 255.982 279 245.274C265.4 231.356 247 239.475 239.5 245.274C212.3 203.122 182.167 227.711 170.5 245.274Z" fill="white" stroke="black" stroke-width="1.2"/>
<path d="M135.449 131.251C126.019 135.777 133.633 162.298 139.424 177.186C139.763 178.058 141.048 178.019 141.429 177.164C146.301 166.204 159.242 157.735 166.379 154.255C166.937 153.983 167.129 153.282 166.756 152.785C159.604 143.247 140.283 128.93 135.449 131.251Z" fill="#0ABD4C" stroke="black" stroke-width="1.2"/>
<path d="M204.879 229.489C188.576 228.093 191.015 245.865 204.837 247.976C204.943 247.992 205.058 247.99 205.164 247.97C221.437 244.893 218.968 227.606 205.119 229.483C205.042 229.494 204.957 229.496 204.879 229.489Z" fill="black"/>
<path d="M206.846 253.882L207.805 248.165C207.907 247.556 207.437 247 206.818 247H203.215C202.586 247 202.113 247.575 202.234 248.192L203.344 253.855C203.466 254.473 202.993 255.048 202.363 255.048H202.12C201.568 255.048 201.12 255.495 201.12 256.048V256.909C201.12 257.249 200.845 257.524 200.506 257.524C200.167 257.524 199.892 257.801 199.892 258.141C199.892 258.482 199.614 258.762 199.273 258.762H188.221C187.88 258.762 187.602 258.485 187.602 258.143C187.602 257.801 187.325 257.524 186.983 257.524H179.929C179.416 257.524 179 257.94 179 258.452V258.667C179 259.062 179.319 259.381 179.713 259.381C180.021 259.381 180.294 259.578 180.391 259.87L181.915 264.478C182.014 264.777 182.248 265.011 182.546 265.112L183.558 265.451C183.788 265.529 183.983 265.688 184.105 265.898L186.351 269.778C186.864 270.663 188.217 270.3 188.217 269.277V263.114C188.217 262.314 189.11 261.838 189.774 262.284L189.807 262.306C189.972 262.417 190.166 262.476 190.365 262.476H214.222C214.489 262.476 214.744 262.37 214.932 262.181L215.574 261.534C215.762 261.344 216.017 261.238 216.284 261.238H220.448C220.98 261.238 221.419 261.655 221.447 262.186L221.781 268.579C221.837 269.644 223.297 269.894 223.704 268.909L224.892 266.036C225.013 265.744 225.265 265.526 225.572 265.449L226.943 265.103C227.31 265.011 227.594 264.719 227.675 264.349L228.653 259.916C228.722 259.603 228.999 259.381 229.319 259.381C229.695 259.381 230 259.076 230 258.7V258.452C230 257.94 229.584 257.524 229.071 257.524H222.017C221.675 257.524 221.398 257.801 221.398 258.143C221.398 258.485 221.12 258.762 220.779 258.762H211.88C211.368 258.762 210.952 258.343 210.952 257.83C210.952 257.321 210.539 256.905 210.03 256.905C209.521 256.905 209.108 256.489 209.108 255.98C209.108 255.467 208.693 255.048 208.18 255.048H207.832C207.214 255.048 206.744 254.492 206.846 253.882Z" fill="black"/>
<path d="M205 230C202.739 230 199.968 230.075 197.767 231.059C196.678 231.546 195.746 232.249 195.083 233.264C194.419 234.28 194 235.646 194 237.5C194 240.055 195.268 241.931 197.021 243.503C197.901 244.291 198.892 244.994 199.895 245.662C200.226 245.883 200.562 246.102 200.894 246.319C201.554 246.75 202.204 247.174 202.791 247.593L202.209 248.407C201.639 247.999 201.021 247.596 200.373 247.173C200.036 246.953 199.691 246.728 199.34 246.494C198.326 245.818 197.287 245.084 196.354 244.247C194.482 242.569 193 240.444 193 237.5C193 235.491 193.456 233.926 194.245 232.717C195.035 231.509 196.134 230.694 197.358 230.147C199.782 229.063 202.761 229 205 229C207.239 229 210.218 229.063 212.642 230.147C213.866 230.694 214.965 231.509 215.755 232.717C216.544 233.926 217 235.491 217 237.5C217 240.444 215.518 242.569 213.646 244.247C212.713 245.084 211.674 245.818 210.66 246.494C210.309 246.728 209.964 246.953 209.627 247.173C208.979 247.596 208.361 247.999 207.791 248.407L207.209 247.593C207.796 247.174 208.445 246.75 209.105 246.319C209.438 246.102 209.774 245.883 210.105 245.662C211.108 244.994 212.099 244.291 212.979 243.503C214.732 241.931 216 240.055 216 237.5C216 235.646 215.581 234.28 214.917 233.264C214.254 232.249 213.322 231.546 212.233 231.059C210.032 230.075 207.261 230 205 230Z" fill="black"/>
<path d="M204.879 229.489C188.576 228.093 191.015 245.865 204.837 247.976C204.943 247.992 205.058 247.99 205.164 247.97C221.437 244.893 218.968 227.606 205.119 229.483C205.042 229.494 204.957 229.496 204.879 229.489Z" stroke="black" stroke-width="1.2"/>
<path d="M206.846 253.882L207.805 248.165C207.907 247.556 207.437 247 206.818 247H203.215C202.586 247 202.113 247.575 202.234 248.192L203.344 253.855C203.466 254.473 202.993 255.048 202.363 255.048H202.12C201.568 255.048 201.12 255.495 201.12 256.048V256.909C201.12 257.249 200.845 257.524 200.506 257.524C200.167 257.524 199.892 257.801 199.892 258.141C199.892 258.482 199.614 258.762 199.273 258.762H188.221C187.88 258.762 187.602 258.485 187.602 258.143C187.602 257.801 187.325 257.524 186.983 257.524H179.929C179.416 257.524 179 257.94 179 258.452V258.667C179 259.062 179.319 259.381 179.713 259.381C180.021 259.381 180.294 259.578 180.391 259.87L181.915 264.478C182.014 264.777 182.248 265.011 182.546 265.112L183.558 265.451C183.788 265.529 183.983 265.688 184.105 265.898L186.351 269.778C186.864 270.663 188.217 270.3 188.217 269.277V263.114C188.217 262.314 189.11 261.838 189.774 262.284L189.807 262.306C189.972 262.417 190.166 262.476 190.365 262.476H214.222C214.489 262.476 214.744 262.37 214.932 262.181L215.574 261.534C215.762 261.344 216.017 261.238 216.284 261.238H220.448C220.98 261.238 221.419 261.655 221.447 262.186L221.781 268.579C221.837 269.644 223.297 269.894 223.704 268.909L224.892 266.036C225.013 265.744 225.265 265.526 225.572 265.449L226.943 265.103C227.31 265.011 227.594 264.719 227.675 264.349L228.653 259.916C228.722 259.603 228.999 259.381 229.319 259.381C229.695 259.381 230 259.076 230 258.7V258.452C230 257.94 229.584 257.524 229.071 257.524H222.017C221.675 257.524 221.398 257.801 221.398 258.143C221.398 258.485 221.12 258.762 220.779 258.762H211.88C211.368 258.762 210.952 258.343 210.952 257.83C210.952 257.321 210.539 256.905 210.03 256.905C209.521 256.905 209.108 256.489 209.108 255.98C209.108 255.467 208.693 255.048 208.18 255.048H207.832C207.214 255.048 206.744 254.492 206.846 253.882Z" stroke="black" stroke-width="1.2"/>
<path d="M205 230C202.739 230 199.968 230.075 197.767 231.059C196.678 231.546 195.746 232.249 195.083 233.264C194.419 234.28 194 235.646 194 237.5C194 240.055 195.268 241.931 197.021 243.503C197.901 244.291 198.892 244.994 199.895 245.662C200.226 245.883 200.562 246.102 200.894 246.319C201.554 246.75 202.204 247.174 202.791 247.593L202.209 248.407C201.639 247.999 201.021 247.596 200.373 247.173C200.036 246.953 199.691 246.728 199.34 246.494C198.326 245.818 197.287 245.084 196.354 244.247C194.482 242.569 193 240.444 193 237.5C193 235.491 193.456 233.926 194.245 232.717C195.035 231.509 196.134 230.694 197.358 230.147C199.782 229.063 202.761 229 205 229C207.239 229 210.218 229.063 212.642 230.147C213.866 230.694 214.965 231.509 215.755 232.717C216.544 233.926 217 235.491 217 237.5C217 240.444 215.518 242.569 213.646 244.247C212.713 245.084 211.674 245.818 210.66 246.494C210.309 246.728 209.964 246.953 209.627 247.173C208.979 247.596 208.361 247.999 207.791 248.407L207.209 247.593C207.796 247.174 208.445 246.75 209.105 246.319C209.438 246.102 209.774 245.883 210.105 245.662C211.108 244.994 212.099 244.291 212.979 243.503C214.732 241.931 216 240.055 216 237.5C216 235.646 215.581 234.28 214.917 233.264C214.254 232.249 213.322 231.546 212.233 231.059C210.032 230.075 207.261 230 205 230Z" stroke="black" stroke-width="1.2"/>
<path d="M165.697 191.097C164.461 190.374 163.578 189.66 162.984 188.962C157.146 182.092 176.555 178.822 182.295 185.775C183.17 186.835 183.793 187.956 184.219 189.071C185.799 193.207 182.548 196.367 178.173 195.687C174.831 195.167 170.47 193.892 165.697 191.097Z" fill="white" stroke="black" stroke-width="1.2"/>
<path d="M241.303 191.097C242.539 190.374 243.422 189.66 244.016 188.962C249.854 182.092 230.445 178.822 224.705 185.775C223.83 186.835 223.207 187.956 222.781 189.071C221.201 193.207 224.452 196.367 228.827 195.687C232.169 195.167 236.53 193.892 241.303 191.097Z" fill="white" stroke="black" stroke-width="1.2"/>
<path d="M269 132.251C278.43 136.777 270.816 163.298 265.025 178.186C264.686 179.058 263.401 179.019 263.021 178.164C258.149 167.204 245.207 158.735 238.07 155.255C237.512 154.983 237.32 154.282 237.693 153.785C244.845 144.247 264.166 129.93 269 132.251Z" fill="#0ABD4C" stroke="black" stroke-width="1.2"/>
<path d="M133.171 133.025C133.075 133.189 133.176 133.392 133.36 133.438C148.319 137.209 155.913 151.535 158.467 158.632C158.534 158.819 158.759 158.886 158.923 158.773C162.201 156.52 165.819 154.696 167.571 154.024C167.772 153.947 167.832 153.681 167.688 153.52C145.136 128.318 135.435 129.196 133.171 133.025Z" fill="#21FF73" stroke="black" stroke-width="1.2"/>
<path d="M270.836 134.118C270.929 134.281 270.829 134.481 270.647 134.529C256.125 138.299 248.749 152.612 246.265 159.711C246.198 159.902 245.968 159.97 245.804 159.852C243.13 157.945 240.226 156.148 238.359 155.196C237.726 154.873 237.524 153.984 237.993 153.45C259.417 129.058 268.665 130.307 270.836 134.118Z" fill="#21FF73" stroke="black" stroke-width="1.2"/>
<path d="M163.048 201.876C179.501 206.005 186.226 213.465 188.111 218.117C188.521 219.128 187.786 220.15 186.702 220.267C174.345 221.603 163.563 215.996 158.485 212.098C157.577 211.401 156.844 210.487 156.481 209.401C155.73 207.155 155.941 205.33 156.547 203.941C157.578 201.575 160.545 201.248 163.048 201.876Z" fill="black" stroke="black" stroke-width="1.2"/>
<path d="M244.601 201.876C228.148 206.005 221.424 213.465 219.538 218.117C219.129 219.128 219.864 220.15 220.948 220.267C233.304 221.603 244.086 215.996 249.164 212.098C250.073 211.401 250.806 210.487 251.169 209.401C251.919 207.155 251.708 205.33 251.103 203.941C250.072 201.575 247.105 201.248 244.601 201.876Z" fill="black" stroke="black" stroke-width="1.2"/>
<path d="M210.882 264H200.135C199.287 264 198.824 264.989 199.367 265.64L199.892 266.27C200.233 266.679 200.834 266.749 201.26 266.43L201.858 265.981C202.233 265.7 202.753 265.717 203.109 266.022L205.297 267.897C205.694 268.237 206.285 268.215 206.655 267.845L208.387 266.113C208.739 265.761 209.296 265.722 209.694 266.02L210.041 266.281C210.541 266.655 211.257 266.486 211.536 265.928L211.776 265.447C212.109 264.782 211.625 264 210.882 264Z" fill="black"/>
</svg>
