<svg width="411" height="412" viewBox="0 0 411 412" fill="none" xmlns="http://www.w3.org/2000/svg">
<rect x="0.6" y="1.01602" width="409.8" height="409.8" fill="#06D954" stroke="black" stroke-width="1.2"/>
<path d="M184 214.5L0 0H411L184 214.5Z" fill="black"/>
<path d="M0.6 410.816V1.86454L409.551 410.816H0.6Z" fill="#25A5FC" stroke="black" stroke-width="1.2"/>
<circle cx="89.5132" cy="10.9292" r="9.91323" fill="white" stroke="black" stroke-width="1.2"/>
<circle cx="272.865" cy="10.9292" r="9.91323" fill="white" stroke="black" stroke-width="1.2"/>
<circle cx="319.964" cy="10.9292" r="9.91323" fill="white" stroke="black" stroke-width="1.2"/>
<circle cx="136.613" cy="10.9292" r="9.91323" fill="white" stroke="black" stroke-width="1.2"/>
<circle cx="230.812" cy="10.9292" r="9.91323" fill="white" stroke="black" stroke-width="1.2"/>
<circle cx="183.712" cy="10.9292" r="9.91323" fill="white" stroke="black" stroke-width="1.2"/>
<circle cx="92.0372" cy="249.79" r="9.91323" fill="white" stroke="black" stroke-width="1.2"/>
<circle cx="275.388" cy="249.79" r="9.91323" fill="white" stroke="black" stroke-width="1.2"/>
<circle cx="322.487" cy="249.79" r="9.91323" fill="white" stroke="black" stroke-width="1.2"/>
<circle cx="139.136" cy="249.79" r="9.91323" fill="white" stroke="black" stroke-width="1.2"/>
<circle cx="233.335" cy="249.79" r="9.91323" fill="white" stroke="black" stroke-width="1.2"/>
<circle cx="186.235" cy="249.79" r="9.91323" fill="white" stroke="black" stroke-width="1.2"/>
<circle cx="89.5132" cy="208.578" r="9.91323" fill="white" stroke="black" stroke-width="1.2"/>
<circle cx="272.865" cy="208.578" r="9.91323" fill="white" stroke="black" stroke-width="1.2"/>
<circle cx="319.964" cy="208.578" r="9.91323" fill="white" stroke="black" stroke-width="1.2"/>
<circle cx="136.613" cy="208.578" r="9.91323" fill="white" stroke="black" stroke-width="1.2"/>
<circle cx="230.812" cy="208.578" r="9.91323" fill="white" stroke="black" stroke-width="1.2"/>
<circle cx="183.712" cy="208.578" r="9.91323" fill="white" stroke="black" stroke-width="1.2"/>
<circle cx="89.5132" cy="175.777" r="9.91323" fill="white" stroke="black" stroke-width="1.2"/>
<circle cx="272.865" cy="175.777" r="9.91323" fill="white" stroke="black" stroke-width="1.2"/>
<circle cx="319.964" cy="175.777" r="9.91323" fill="white" stroke="black" stroke-width="1.2"/>
<circle cx="136.613" cy="175.777" r="9.91323" fill="white" stroke="black" stroke-width="1.2"/>
<circle cx="230.812" cy="175.777" r="9.91323" fill="white" stroke="black" stroke-width="1.2"/>
<circle cx="183.712" cy="175.777" r="9.91323" fill="white" stroke="black" stroke-width="1.2"/>
<circle cx="272.865" cy="134.564" r="9.91323" fill="white" stroke="black" stroke-width="1.2"/>
<circle cx="319.964" cy="134.564" r="9.91323" fill="white" stroke="black" stroke-width="1.2"/>
<circle cx="136.613" cy="134.564" r="9.91323" fill="white" stroke="black" stroke-width="1.2"/>
<circle cx="230.812" cy="134.564" r="9.91323" fill="white" stroke="black" stroke-width="1.2"/>
<circle cx="183.712" cy="134.564" r="9.91323" fill="white" stroke="black" stroke-width="1.2"/>
<circle cx="89.5132" cy="93.3533" r="9.91323" fill="white" stroke="black" stroke-width="1.2"/>
<circle cx="272.865" cy="93.3533" r="9.91323" fill="white" stroke="black" stroke-width="1.2"/>
<circle cx="319.964" cy="93.3533" r="9.91323" fill="white" stroke="black" stroke-width="1.2"/>
<circle cx="136.613" cy="93.3533" r="9.91323" fill="white" stroke="black" stroke-width="1.2"/>
<circle cx="230.812" cy="93.3533" r="9.91323" fill="white" stroke="black" stroke-width="1.2"/>
<circle cx="183.712" cy="93.3533" r="9.91323" fill="white" stroke="black" stroke-width="1.2"/>
<circle cx="89.5132" cy="52.1412" r="9.91323" fill="white" stroke="black" stroke-width="1.2"/>
<circle cx="272.865" cy="52.1412" r="9.91323" fill="white" stroke="black" stroke-width="1.2"/>
<circle cx="319.964" cy="52.1412" r="9.91323" fill="white" stroke="black" stroke-width="1.2"/>
<circle cx="136.613" cy="52.1412" r="9.91323" fill="white" stroke="black" stroke-width="1.2"/>
<circle cx="230.812" cy="52.1412" r="9.91323" fill="white" stroke="black" stroke-width="1.2"/>
<circle cx="183.712" cy="52.1412" r="9.91323" fill="white" stroke="black" stroke-width="1.2"/>
<circle cx="205.5" cy="205.916" r="144.9" fill="#FBD90E" stroke="black" stroke-width="1.2"/>
<path d="M234.709 150.589C210.705 141.966 186.784 146.839 177.096 150.607C176.706 150.759 176.277 150.666 175.993 150.359C164.313 137.731 140.43 114.442 130.958 120.363C121.416 126.326 129.853 168.508 135.847 188.986C135.919 189.234 135.885 189.502 135.767 189.731C101.045 257.373 167.181 285.298 204.806 290.84C204.909 290.855 205.015 290.853 205.117 290.836C300.046 274.882 289.561 217.123 272.232 189.791C272.058 189.517 272.026 189.193 272.146 188.892C280.729 167.214 287.881 122.947 277.457 120.862C261.759 117.723 243.653 138.714 235.893 150.211C235.633 150.596 235.147 150.746 234.709 150.589Z" fill="#FD0948" stroke="black" stroke-width="1.2"/>
<path d="M171.5 245.69C152.3 230.977 135 235.942 128.5 240.416C137.401 271.123 173.764 286 197.047 291.003C202.288 292.129 207.72 291.961 212.947 290.77C261.928 279.617 278.099 256.398 280 245.69C266.4 231.772 248 239.891 240.5 245.69C213.3 203.538 183.167 228.127 171.5 245.69Z" fill="white" stroke="black" stroke-width="1.2"/>
<path d="M136.449 131.667C127.019 136.193 134.633 162.714 140.424 177.602C140.763 178.475 142.048 178.435 142.429 177.58C147.301 166.62 160.242 158.151 167.379 154.671C167.937 154.399 168.129 153.698 167.756 153.201C160.604 143.663 141.283 129.346 136.449 131.667Z" fill="#C20133" stroke="black" stroke-width="1.2"/>
<path d="M205.879 229.905C189.576 228.509 192.015 246.281 205.837 248.392C205.943 248.408 206.058 248.406 206.164 248.386C222.437 245.309 219.968 228.022 206.119 229.899C206.042 229.91 205.957 229.912 205.879 229.905Z" fill="black"/>
<path d="M207.846 254.298L208.805 248.581C208.907 247.972 208.437 247.416 207.818 247.416H204.215C203.586 247.416 203.113 247.991 203.234 248.608L204.344 254.271C204.466 254.889 203.993 255.464 203.363 255.464H203.12C202.568 255.464 202.12 255.911 202.12 256.464V257.325C202.12 257.665 201.845 257.94 201.506 257.94C201.167 257.94 200.892 258.217 200.892 258.557C200.892 258.898 200.614 259.178 200.273 259.178H189.221C188.88 259.178 188.602 258.901 188.602 258.559C188.602 258.217 188.325 257.94 187.983 257.94H180.929C180.416 257.94 180 258.356 180 258.868V259.083C180 259.478 180.319 259.797 180.713 259.797C181.021 259.797 181.294 259.994 181.391 260.286L182.915 264.894C183.014 265.193 183.248 265.427 183.546 265.528L184.558 265.867C184.788 265.945 184.983 266.104 185.105 266.314L187.351 270.194C187.864 271.079 189.217 270.716 189.217 269.693V263.53C189.217 262.73 190.11 262.254 190.774 262.7L190.807 262.722C190.972 262.833 191.166 262.892 191.365 262.892H215.222C215.489 262.892 215.744 262.786 215.932 262.597L216.574 261.95C216.762 261.76 217.017 261.654 217.284 261.654H221.448C221.98 261.654 222.419 262.071 222.447 262.602L222.781 268.995C222.837 270.06 224.297 270.31 224.704 269.325L225.892 266.452C226.013 266.16 226.265 265.942 226.572 265.865L227.943 265.519C228.31 265.427 228.594 265.135 228.675 264.765L229.653 260.332C229.722 260.019 229.999 259.797 230.319 259.797C230.695 259.797 231 259.492 231 259.116V258.868C231 258.356 230.584 257.94 230.071 257.94H223.017C222.675 257.94 222.398 258.217 222.398 258.559C222.398 258.901 222.12 259.178 221.779 259.178H212.88C212.368 259.178 211.952 258.759 211.952 258.246C211.952 257.737 211.539 257.321 211.03 257.321C210.521 257.321 210.108 256.905 210.108 256.396C210.108 255.883 209.693 255.464 209.18 255.464H208.832C208.214 255.464 207.744 254.908 207.846 254.298Z" fill="black"/>
<path d="M206 230.416C203.739 230.416 200.968 230.491 198.767 231.475C197.678 231.962 196.746 232.665 196.083 233.68C195.419 234.696 195 236.062 195 237.916C195 240.471 196.268 242.347 198.021 243.919C198.901 244.707 199.892 245.41 200.895 246.078C201.226 246.299 201.562 246.518 201.894 246.735C202.554 247.166 203.204 247.59 203.791 248.009L203.209 248.823C202.639 248.415 202.021 248.012 201.373 247.589C201.036 247.369 200.691 247.144 200.34 246.91C199.326 246.234 198.287 245.5 197.354 244.663C195.482 242.985 194 240.86 194 237.916C194 235.907 194.456 234.342 195.245 233.133C196.035 231.925 197.134 231.11 198.358 230.563C200.782 229.479 203.761 229.416 206 229.416C208.239 229.416 211.218 229.479 213.642 230.563C214.866 231.11 215.965 231.925 216.755 233.133C217.544 234.342 218 235.907 218 237.916C218 240.86 216.518 242.985 214.646 244.663C213.713 245.5 212.674 246.234 211.66 246.91C211.309 247.144 210.964 247.369 210.627 247.589C209.979 248.012 209.361 248.415 208.791 248.823L208.209 248.009C208.796 247.59 209.445 247.166 210.105 246.735C210.438 246.518 210.774 246.299 211.105 246.078C212.108 245.41 213.099 244.707 213.979 243.919C215.732 242.347 217 240.471 217 237.916C217 236.062 216.581 234.696 215.917 233.68C215.254 232.665 214.322 231.962 213.233 231.475C211.032 230.491 208.261 230.416 206 230.416Z" fill="black"/>
<path d="M205.879 229.905C189.576 228.509 192.015 246.281 205.837 248.392C205.943 248.408 206.058 248.406 206.164 248.386C222.437 245.309 219.968 228.022 206.119 229.899C206.042 229.91 205.957 229.912 205.879 229.905Z" stroke="black" stroke-width="1.2"/>
<path d="M207.846 254.298L208.805 248.581C208.907 247.972 208.437 247.416 207.818 247.416H204.215C203.586 247.416 203.113 247.991 203.234 248.608L204.344 254.271C204.466 254.889 203.993 255.464 203.363 255.464H203.12C202.568 255.464 202.12 255.911 202.12 256.464V257.325C202.12 257.665 201.845 257.94 201.506 257.94C201.167 257.94 200.892 258.217 200.892 258.557C200.892 258.898 200.614 259.178 200.273 259.178H189.221C188.88 259.178 188.602 258.901 188.602 258.559C188.602 258.217 188.325 257.94 187.983 257.94H180.929C180.416 257.94 180 258.356 180 258.868V259.083C180 259.478 180.319 259.797 180.713 259.797C181.021 259.797 181.294 259.994 181.391 260.286L182.915 264.894C183.014 265.193 183.248 265.427 183.546 265.528L184.558 265.867C184.788 265.945 184.983 266.104 185.105 266.314L187.351 270.194C187.864 271.079 189.217 270.716 189.217 269.693V263.53C189.217 262.73 190.11 262.254 190.774 262.7L190.807 262.722C190.972 262.833 191.166 262.892 191.365 262.892H215.222C215.489 262.892 215.744 262.786 215.932 262.597L216.574 261.95C216.762 261.76 217.017 261.654 217.284 261.654H221.448C221.98 261.654 222.419 262.071 222.447 262.602L222.781 268.995C222.837 270.06 224.297 270.31 224.704 269.325L225.892 266.452C226.013 266.16 226.265 265.942 226.572 265.865L227.943 265.519C228.31 265.427 228.594 265.135 228.675 264.765L229.653 260.332C229.722 260.019 229.999 259.797 230.319 259.797C230.695 259.797 231 259.492 231 259.116V258.868C231 258.356 230.584 257.94 230.071 257.94H223.017C222.675 257.94 222.398 258.217 222.398 258.559C222.398 258.901 222.12 259.178 221.779 259.178H212.88C212.368 259.178 211.952 258.759 211.952 258.246C211.952 257.737 211.539 257.321 211.03 257.321C210.521 257.321 210.108 256.905 210.108 256.396C210.108 255.883 209.693 255.464 209.18 255.464H208.832C208.214 255.464 207.744 254.908 207.846 254.298Z" stroke="black" stroke-width="1.2"/>
<path d="M206 230.416C203.739 230.416 200.968 230.491 198.767 231.475C197.678 231.962 196.746 232.665 196.083 233.68C195.419 234.696 195 236.062 195 237.916C195 240.471 196.268 242.347 198.021 243.919C198.901 244.707 199.892 245.41 200.895 246.078C201.226 246.299 201.562 246.518 201.894 246.735C202.554 247.166 203.204 247.59 203.791 248.009L203.209 248.823C202.639 248.415 202.021 248.012 201.373 247.589C201.036 247.369 200.691 247.144 200.34 246.91C199.326 246.234 198.287 245.5 197.354 244.663C195.482 242.985 194 240.86 194 237.916C194 235.907 194.456 234.342 195.245 233.133C196.035 231.925 197.134 231.11 198.358 230.563C200.782 229.479 203.761 229.416 206 229.416C208.239 229.416 211.218 229.479 213.642 230.563C214.866 231.11 215.965 231.925 216.755 233.133C217.544 234.342 218 235.907 218 237.916C218 240.86 216.518 242.985 214.646 244.663C213.713 245.5 212.674 246.234 211.66 246.91C211.309 247.144 210.964 247.369 210.627 247.589C209.979 248.012 209.361 248.415 208.791 248.823L208.209 248.009C208.796 247.59 209.445 247.166 210.105 246.735C210.438 246.518 210.774 246.299 211.105 246.078C212.108 245.41 213.099 244.707 213.979 243.919C215.732 242.347 217 240.471 217 237.916C217 236.062 216.581 234.696 215.917 233.68C215.254 232.665 214.322 231.962 213.233 231.475C211.032 230.491 208.261 230.416 206 230.416Z" stroke="black" stroke-width="1.2"/>
<path d="M166.697 191.513C165.461 190.79 164.578 190.076 163.984 189.378C158.146 182.508 177.555 179.238 183.295 186.191C184.17 187.251 184.793 188.372 185.219 189.487C186.799 193.623 183.548 196.783 179.173 196.103C175.831 195.583 171.47 194.308 166.697 191.513Z" fill="white" stroke="black" stroke-width="1.2"/>
<path d="M242.303 191.513C243.539 190.79 244.422 190.076 245.016 189.378C250.854 182.508 231.445 179.238 225.705 186.191C224.83 187.251 224.207 188.372 223.781 189.487C222.201 193.623 225.452 196.783 229.827 196.103C233.169 195.583 237.53 194.308 242.303 191.513Z" fill="white" stroke="black" stroke-width="1.2"/>
<path d="M270 132.667C279.43 137.193 271.816 163.714 266.025 178.602C265.686 179.475 264.401 179.435 264.021 178.58C259.149 167.62 246.207 159.151 239.07 155.671C238.512 155.399 238.32 154.698 238.693 154.201C245.845 144.663 265.166 130.346 270 132.667Z" fill="#C20133" stroke="black" stroke-width="1.2"/>
<path d="M134.159 133.42C134.06 133.584 134.162 133.789 134.347 133.835C149.306 137.539 156.908 151.636 159.466 158.62C159.534 158.806 159.757 158.872 159.921 158.761C163.194 156.542 166.807 154.745 168.561 154.081C168.764 154.003 168.824 153.736 168.677 153.574C146.128 128.801 136.428 129.655 134.159 133.42Z" fill="#FF215B" stroke="black" stroke-width="1.2"/>
<path d="M271.836 134.534C271.929 134.697 271.829 134.897 271.647 134.945C257.125 138.715 249.749 153.028 247.265 160.127C247.198 160.318 246.968 160.386 246.804 160.268C244.13 158.361 241.226 156.564 239.359 155.612C238.726 155.289 238.524 154.4 238.993 153.866C260.417 129.474 269.665 130.723 271.836 134.534Z" fill="#FF215B" stroke="black" stroke-width="1.2"/>
<path d="M164.048 202.292C180.501 206.421 187.226 213.881 189.111 218.533C189.521 219.544 188.786 220.566 187.702 220.683C175.345 222.019 164.563 216.412 159.485 212.514C158.577 211.817 157.844 210.903 157.481 209.817C156.73 207.571 156.941 205.746 157.547 204.357C158.578 201.991 161.545 201.664 164.048 202.292Z" fill="black" stroke="black" stroke-width="1.2"/>
<path d="M245.601 202.292C229.148 206.421 222.424 213.881 220.538 218.533C220.129 219.544 220.864 220.566 221.948 220.683C234.304 222.019 245.086 216.412 250.164 212.514C251.073 211.817 251.806 210.903 252.169 209.817C252.919 207.571 252.708 205.746 252.103 204.357C251.072 201.991 248.105 201.664 245.601 202.292Z" fill="black" stroke="black" stroke-width="1.2"/>
<path d="M211.882 264.416H201.135C200.287 264.416 199.824 265.405 200.367 266.056L200.892 266.686C201.233 267.095 201.834 267.165 202.26 266.846L202.858 266.397C203.233 266.116 203.753 266.133 204.109 266.438L206.297 268.313C206.694 268.653 207.285 268.631 207.655 268.261L209.387 266.529C209.739 266.177 210.296 266.138 210.694 266.436L211.041 266.697C211.541 267.071 212.257 266.902 212.536 266.344L212.776 265.863C213.109 265.198 212.625 264.416 211.882 264.416Z" fill="black"/>
</svg>
