<svg width="411" height="411" viewBox="0 0 411 411" fill="none" xmlns="http://www.w3.org/2000/svg">
<rect x="0.6" y="0.6" width="409.8" height="409.8" fill="black" stroke="black" stroke-width="1.2"/>
<rect x="0.6" y="50.6" width="409.8" height="54.8" fill="#06D954" stroke="black" stroke-width="1.2"/>
<rect x="0.6" y="143.6" width="409.8" height="174.8" fill="#25A5FC" stroke="black" stroke-width="1.2"/>
<circle cx="167.513" cy="10.5132" r="9.91323" fill="white" stroke="black" stroke-width="1.2"/>
<circle cx="350.865" cy="10.5132" r="9.91323" fill="white" stroke="black" stroke-width="1.2"/>
<circle cx="397.964" cy="10.5132" r="9.91323" fill="white" stroke="black" stroke-width="1.2"/>
<circle cx="214.613" cy="10.5132" r="9.91323" fill="white" stroke="black" stroke-width="1.2"/>
<circle cx="308.812" cy="10.5132" r="9.91323" fill="white" stroke="black" stroke-width="1.2"/>
<circle cx="261.712" cy="10.5132" r="9.91323" fill="white" stroke="black" stroke-width="1.2"/>
<circle cx="170.037" cy="249.374" r="9.91323" fill="white" stroke="black" stroke-width="1.2"/>
<circle cx="353.388" cy="249.374" r="9.91323" fill="white" stroke="black" stroke-width="1.2"/>
<circle cx="400.487" cy="249.374" r="9.91323" fill="white" stroke="black" stroke-width="1.2"/>
<circle cx="217.136" cy="249.374" r="9.91323" fill="white" stroke="black" stroke-width="1.2"/>
<circle cx="311.335" cy="249.374" r="9.91323" fill="white" stroke="black" stroke-width="1.2"/>
<circle cx="264.235" cy="249.374" r="9.91323" fill="white" stroke="black" stroke-width="1.2"/>
<circle cx="167.513" cy="208.162" r="9.91323" fill="white" stroke="black" stroke-width="1.2"/>
<circle cx="350.865" cy="208.162" r="9.91323" fill="white" stroke="black" stroke-width="1.2"/>
<circle cx="397.964" cy="208.162" r="9.91323" fill="white" stroke="black" stroke-width="1.2"/>
<circle cx="214.613" cy="208.162" r="9.91323" fill="white" stroke="black" stroke-width="1.2"/>
<circle cx="308.812" cy="208.162" r="9.91323" fill="white" stroke="black" stroke-width="1.2"/>
<circle cx="261.712" cy="208.162" r="9.91323" fill="white" stroke="black" stroke-width="1.2"/>
<circle cx="167.513" cy="175.361" r="9.91323" fill="white" stroke="black" stroke-width="1.2"/>
<circle cx="350.865" cy="175.361" r="9.91323" fill="white" stroke="black" stroke-width="1.2"/>
<circle cx="397.964" cy="175.361" r="9.91323" fill="white" stroke="black" stroke-width="1.2"/>
<circle cx="214.613" cy="175.361" r="9.91323" fill="white" stroke="black" stroke-width="1.2"/>
<circle cx="308.812" cy="175.361" r="9.91323" fill="white" stroke="black" stroke-width="1.2"/>
<circle cx="261.712" cy="175.361" r="9.91323" fill="white" stroke="black" stroke-width="1.2"/>
<circle cx="167.513" cy="134.148" r="9.91323" fill="white" stroke="black" stroke-width="1.2"/>
<circle cx="350.865" cy="134.148" r="9.91323" fill="white" stroke="black" stroke-width="1.2"/>
<circle cx="397.964" cy="134.148" r="9.91323" fill="white" stroke="black" stroke-width="1.2"/>
<circle cx="214.613" cy="134.148" r="9.91323" fill="white" stroke="black" stroke-width="1.2"/>
<circle cx="308.812" cy="134.148" r="9.91323" fill="white" stroke="black" stroke-width="1.2"/>
<circle cx="261.712" cy="134.148" r="9.91323" fill="white" stroke="black" stroke-width="1.2"/>
<circle cx="167.513" cy="92.9373" r="9.91323" fill="white" stroke="black" stroke-width="1.2"/>
<circle cx="350.865" cy="92.9373" r="9.91323" fill="white" stroke="black" stroke-width="1.2"/>
<circle cx="397.964" cy="92.9373" r="9.91323" fill="white" stroke="black" stroke-width="1.2"/>
<circle cx="214.613" cy="92.9373" r="9.91323" fill="white" stroke="black" stroke-width="1.2"/>
<circle cx="308.812" cy="92.9373" r="9.91323" fill="white" stroke="black" stroke-width="1.2"/>
<circle cx="261.712" cy="92.9373" r="9.91323" fill="white" stroke="black" stroke-width="1.2"/>
<circle cx="167.513" cy="51.7251" r="9.91323" fill="white" stroke="black" stroke-width="1.2"/>
<circle cx="350.865" cy="51.7251" r="9.91323" fill="white" stroke="black" stroke-width="1.2"/>
<circle cx="397.964" cy="51.7251" r="9.91323" fill="white" stroke="black" stroke-width="1.2"/>
<circle cx="214.613" cy="51.7251" r="9.91323" fill="white" stroke="black" stroke-width="1.2"/>
<circle cx="308.812" cy="51.7251" r="9.91323" fill="white" stroke="black" stroke-width="1.2"/>
<circle cx="261.712" cy="51.7251" r="9.91323" fill="white" stroke="black" stroke-width="1.2"/>
<circle cx="205.5" cy="212.5" r="144.9" fill="#FD0948" stroke="black" stroke-width="1.2"/>
<path d="M235.709 157.173C211.705 148.55 187.784 153.423 178.096 157.191C177.706 157.343 177.277 157.25 176.993 156.943C165.313 144.315 141.43 121.026 131.958 126.947C122.416 132.91 130.853 175.092 136.847 195.57C136.919 195.818 136.885 196.086 136.767 196.315C102.045 263.957 168.181 291.882 205.806 297.424C205.909 297.439 206.015 297.437 206.117 297.42C301.046 281.466 290.561 223.707 273.232 196.375C273.058 196.101 273.026 195.777 273.146 195.476C281.729 173.798 288.881 129.531 278.457 127.446C262.759 124.307 244.653 145.298 236.893 156.795C236.633 157.18 236.147 157.33 235.709 157.173Z" fill="#FFC914" stroke="black" stroke-width="1.2"/>
<path d="M172.5 252.274C153.3 237.561 136 242.526 129.5 247C138.401 277.707 174.764 292.584 198.047 297.587C203.288 298.713 208.72 298.545 213.947 297.354C262.928 286.201 279.099 262.982 281 252.274C267.4 238.356 249 246.475 241.5 252.274C214.3 210.122 184.167 234.711 172.5 252.274Z" fill="white" stroke="black" stroke-width="1.2"/>
<path d="M137.449 138.251C128.019 142.777 135.633 169.298 141.424 184.186C141.763 185.058 143.048 185.019 143.429 184.164C148.301 173.204 161.242 164.735 168.379 161.255C168.937 160.983 169.129 160.282 168.756 159.785C161.604 150.247 142.283 135.93 137.449 138.251Z" fill="#FFA300" stroke="black" stroke-width="1.2"/>
<path d="M206.879 236.489C190.576 235.093 193.015 252.865 206.837 254.976C206.943 254.992 207.058 254.99 207.164 254.97C223.437 251.893 220.968 234.606 207.119 236.483C207.042 236.494 206.957 236.496 206.879 236.489Z" fill="black"/>
<path d="M208.846 260.882L209.805 255.165C209.907 254.556 209.437 254 208.818 254H205.215C204.586 254 204.113 254.575 204.234 255.192L205.344 260.855C205.466 261.473 204.993 262.048 204.363 262.048H204.12C203.568 262.048 203.12 262.495 203.12 263.048V263.909C203.12 264.249 202.845 264.524 202.506 264.524C202.167 264.524 201.892 264.801 201.892 265.141C201.892 265.482 201.614 265.762 201.273 265.762H190.221C189.88 265.762 189.602 265.485 189.602 265.143C189.602 264.801 189.325 264.524 188.983 264.524H181.929C181.416 264.524 181 264.94 181 265.452V265.667C181 266.062 181.319 266.381 181.713 266.381C182.021 266.381 182.294 266.578 182.391 266.87L183.915 271.478C184.014 271.777 184.248 272.011 184.546 272.112L185.558 272.451C185.788 272.529 185.983 272.688 186.105 272.898L188.351 276.778C188.864 277.663 190.217 277.3 190.217 276.277V270.114C190.217 269.314 191.11 268.838 191.774 269.284L191.807 269.306C191.972 269.417 192.166 269.476 192.365 269.476H216.222C216.489 269.476 216.744 269.37 216.932 269.181L217.574 268.534C217.762 268.344 218.017 268.238 218.284 268.238H222.448C222.98 268.238 223.419 268.655 223.447 269.186L223.781 275.579C223.837 276.644 225.297 276.894 225.704 275.909L226.892 273.036C227.013 272.744 227.265 272.526 227.572 272.449L228.943 272.103C229.31 272.011 229.594 271.719 229.675 271.349L230.653 266.916C230.722 266.603 230.999 266.381 231.319 266.381C231.695 266.381 232 266.076 232 265.7V265.452C232 264.94 231.584 264.524 231.071 264.524H224.017C223.675 264.524 223.398 264.801 223.398 265.143C223.398 265.485 223.12 265.762 222.779 265.762H213.88C213.368 265.762 212.952 265.343 212.952 264.83C212.952 264.321 212.539 263.905 212.03 263.905C211.521 263.905 211.108 263.489 211.108 262.98C211.108 262.467 210.693 262.048 210.18 262.048H209.832C209.214 262.048 208.744 261.492 208.846 260.882Z" fill="black"/>
<path d="M207 237C204.739 237 201.968 237.075 199.767 238.059C198.678 238.546 197.746 239.249 197.083 240.264C196.419 241.28 196 242.646 196 244.5C196 247.055 197.268 248.931 199.021 250.503C199.901 251.291 200.892 251.994 201.895 252.662C202.226 252.883 202.562 253.102 202.894 253.319C203.554 253.75 204.204 254.174 204.791 254.593L204.209 255.407C203.639 254.999 203.021 254.596 202.373 254.173C202.036 253.953 201.691 253.728 201.34 253.494C200.326 252.818 199.287 252.084 198.354 251.247C196.482 249.569 195 247.444 195 244.5C195 242.491 195.456 240.926 196.245 239.717C197.035 238.509 198.134 237.694 199.358 237.147C201.782 236.063 204.761 236 207 236C209.239 236 212.218 236.063 214.642 237.147C215.866 237.694 216.965 238.509 217.755 239.717C218.544 240.926 219 242.491 219 244.5C219 247.444 217.518 249.569 215.646 251.247C214.713 252.084 213.674 252.818 212.66 253.494C212.309 253.728 211.964 253.953 211.627 254.173C210.979 254.596 210.361 254.999 209.791 255.407L209.209 254.593C209.796 254.174 210.445 253.75 211.105 253.319C211.438 253.102 211.774 252.883 212.105 252.662C213.108 251.994 214.099 251.291 214.979 250.503C216.732 248.931 218 247.055 218 244.5C218 242.646 217.581 241.28 216.917 240.264C216.254 239.249 215.322 238.546 214.233 238.059C212.032 237.075 209.261 237 207 237Z" fill="black"/>
<path d="M206.879 236.489C190.576 235.093 193.015 252.865 206.837 254.976C206.943 254.992 207.058 254.99 207.164 254.97C223.437 251.893 220.968 234.606 207.119 236.483C207.042 236.494 206.957 236.496 206.879 236.489Z" stroke="black" stroke-width="1.2"/>
<path d="M208.846 260.882L209.805 255.165C209.907 254.556 209.437 254 208.818 254H205.215C204.586 254 204.113 254.575 204.234 255.192L205.344 260.855C205.466 261.473 204.993 262.048 204.363 262.048H204.12C203.568 262.048 203.12 262.495 203.12 263.048V263.909C203.12 264.249 202.845 264.524 202.506 264.524C202.167 264.524 201.892 264.801 201.892 265.141C201.892 265.482 201.614 265.762 201.273 265.762H190.221C189.88 265.762 189.602 265.485 189.602 265.143C189.602 264.801 189.325 264.524 188.983 264.524H181.929C181.416 264.524 181 264.94 181 265.452V265.667C181 266.062 181.319 266.381 181.713 266.381C182.021 266.381 182.294 266.578 182.391 266.87L183.915 271.478C184.014 271.777 184.248 272.011 184.546 272.112L185.558 272.451C185.788 272.529 185.983 272.688 186.105 272.898L188.351 276.778C188.864 277.663 190.217 277.3 190.217 276.277V270.114C190.217 269.314 191.11 268.838 191.774 269.284L191.807 269.306C191.972 269.417 192.166 269.476 192.365 269.476H216.222C216.489 269.476 216.744 269.37 216.932 269.181L217.574 268.534C217.762 268.344 218.017 268.238 218.284 268.238H222.448C222.98 268.238 223.419 268.655 223.447 269.186L223.781 275.579C223.837 276.644 225.297 276.894 225.704 275.909L226.892 273.036C227.013 272.744 227.265 272.526 227.572 272.449L228.943 272.103C229.31 272.011 229.594 271.719 229.675 271.349L230.653 266.916C230.722 266.603 230.999 266.381 231.319 266.381C231.695 266.381 232 266.076 232 265.7V265.452C232 264.94 231.584 264.524 231.071 264.524H224.017C223.675 264.524 223.398 264.801 223.398 265.143C223.398 265.485 223.12 265.762 222.779 265.762H213.88C213.368 265.762 212.952 265.343 212.952 264.83C212.952 264.321 212.539 263.905 212.03 263.905C211.521 263.905 211.108 263.489 211.108 262.98C211.108 262.467 210.693 262.048 210.18 262.048H209.832C209.214 262.048 208.744 261.492 208.846 260.882Z" stroke="black" stroke-width="1.2"/>
<path d="M207 237C204.739 237 201.968 237.075 199.767 238.059C198.678 238.546 197.746 239.249 197.083 240.264C196.419 241.28 196 242.646 196 244.5C196 247.055 197.268 248.931 199.021 250.503C199.901 251.291 200.892 251.994 201.895 252.662C202.226 252.883 202.562 253.102 202.894 253.319C203.554 253.75 204.204 254.174 204.791 254.593L204.209 255.407C203.639 254.999 203.021 254.596 202.373 254.173C202.036 253.953 201.691 253.728 201.34 253.494C200.326 252.818 199.287 252.084 198.354 251.247C196.482 249.569 195 247.444 195 244.5C195 242.491 195.456 240.926 196.245 239.717C197.035 238.509 198.134 237.694 199.358 237.147C201.782 236.063 204.761 236 207 236C209.239 236 212.218 236.063 214.642 237.147C215.866 237.694 216.965 238.509 217.755 239.717C218.544 240.926 219 242.491 219 244.5C219 247.444 217.518 249.569 215.646 251.247C214.713 252.084 213.674 252.818 212.66 253.494C212.309 253.728 211.964 253.953 211.627 254.173C210.979 254.596 210.361 254.999 209.791 255.407L209.209 254.593C209.796 254.174 210.445 253.75 211.105 253.319C211.438 253.102 211.774 252.883 212.105 252.662C213.108 251.994 214.099 251.291 214.979 250.503C216.732 248.931 218 247.055 218 244.5C218 242.646 217.581 241.28 216.917 240.264C216.254 239.249 215.322 238.546 214.233 238.059C212.032 237.075 209.261 237 207 237Z" stroke="black" stroke-width="1.2"/>
<path d="M167.697 198.097C166.461 197.374 165.578 196.66 164.984 195.962C159.146 189.092 178.555 185.822 184.295 192.775C185.17 193.835 185.793 194.956 186.219 196.071C187.799 200.207 184.548 203.367 180.173 202.687C176.831 202.167 172.47 200.892 167.697 198.097Z" fill="white" stroke="black" stroke-width="1.2"/>
<path d="M243.303 198.097C244.539 197.374 245.422 196.66 246.016 195.962C251.854 189.092 232.445 185.822 226.705 192.775C225.83 193.835 225.207 194.956 224.781 196.071C223.201 200.207 226.452 203.367 230.827 202.687C234.169 202.167 238.53 200.892 243.303 198.097Z" fill="white" stroke="black" stroke-width="1.2"/>
<path d="M271 139.251C280.43 143.777 272.816 170.298 267.025 185.186C266.686 186.058 265.401 186.019 265.021 185.164C260.149 174.204 247.207 165.735 240.07 162.255C239.512 161.983 239.32 161.282 239.693 160.785C246.845 151.247 266.166 136.93 271 139.251Z" fill="#FFA300" stroke="black" stroke-width="1.2"/>
<path d="M135.171 140.025C135.075 140.189 135.176 140.392 135.36 140.438C150.319 144.209 157.913 158.535 160.467 165.632C160.534 165.819 160.759 165.886 160.923 165.773C164.201 163.52 167.819 161.696 169.571 161.024C169.772 160.947 169.832 160.681 169.688 160.52C147.136 135.318 137.435 136.196 135.171 140.025Z" fill="#FFB42F" stroke="black" stroke-width="1.2"/>
<path d="M272.836 141.118C272.929 141.281 272.829 141.481 272.647 141.529C258.125 145.299 250.749 159.612 248.265 166.711C248.198 166.902 247.968 166.97 247.804 166.852C245.13 164.945 242.226 163.148 240.359 162.196C239.726 161.873 239.524 160.984 239.993 160.45C261.417 136.058 270.665 137.307 272.836 141.118Z" fill="#FFB42F" stroke="black" stroke-width="1.2"/>
<path d="M165.048 208.876C181.501 213.005 188.226 220.465 190.111 225.117C190.521 226.128 189.786 227.15 188.702 227.267C176.345 228.603 165.563 222.996 160.485 219.098C159.577 218.401 158.844 217.487 158.481 216.401C157.73 214.155 157.941 212.33 158.547 210.941C159.578 208.575 162.545 208.248 165.048 208.876Z" fill="black" stroke="black" stroke-width="1.2"/>
<path d="M246.601 208.876C230.148 213.005 223.424 220.465 221.538 225.117C221.129 226.128 221.864 227.15 222.948 227.267C235.304 228.603 246.086 222.996 251.164 219.098C252.073 218.401 252.806 217.487 253.169 216.401C253.919 214.155 253.708 212.33 253.103 210.941C252.072 208.575 249.105 208.248 246.601 208.876Z" fill="black" stroke="black" stroke-width="1.2"/>
<path d="M212.882 271H202.135C201.287 271 200.824 271.989 201.367 272.64L201.892 273.27C202.233 273.679 202.834 273.749 203.26 273.43L203.858 272.981C204.233 272.7 204.753 272.717 205.109 273.022L207.297 274.897C207.694 275.237 208.285 275.215 208.655 274.845L210.387 273.113C210.739 272.761 211.296 272.722 211.694 273.02L212.041 273.281C212.541 273.655 213.257 273.486 213.536 272.928L213.776 272.447C214.109 271.782 213.625 271 212.882 271Z" fill="black"/>
</svg>
