<svg width="1073" height="162" viewBox="0 0 1073 162" fill="none" xmlns="http://www.w3.org/2000/svg">
<path d="M282.32 20.936H272L273.536 13.4H303.632L302.096 20.936H291.824L286.592 47H277.088L282.32 20.936ZM313.284 47.432C310.532 47.432 308.132 46.952 306.084 45.992C304.036 45 302.452 43.608 301.332 41.816C300.212 40.024 299.652 37.944 299.652 35.576C299.652 32.728 300.34 30.168 301.716 27.896C303.092 25.624 304.996 23.832 307.428 22.52C309.86 21.208 312.596 20.552 315.636 20.552C318.388 20.552 320.788 21.048 322.836 22.04C324.884 23 326.468 24.376 327.588 26.168C328.708 27.928 329.268 29.992 329.268 32.36C329.268 35.208 328.58 37.784 327.204 40.088C325.828 42.36 323.924 44.152 321.492 45.464C319.092 46.776 316.356 47.432 313.284 47.432ZM313.812 40.088C315.636 40.088 317.124 39.416 318.276 38.072C319.428 36.728 320.004 34.984 320.004 32.84C320.004 31.304 319.572 30.088 318.708 29.192C317.844 28.296 316.644 27.848 315.108 27.848C313.284 27.848 311.796 28.52 310.644 29.864C309.492 31.208 308.916 32.968 308.916 35.144C308.916 36.68 309.348 37.896 310.212 38.792C311.076 39.656 312.276 40.088 313.812 40.088ZM344.294 37.304C344.23 37.752 344.198 38.04 344.198 38.168C344.198 39.64 344.998 40.376 346.598 40.376C347.462 40.376 348.374 40.12 349.334 39.608L350.486 45.896C348.694 46.92 346.438 47.432 343.718 47.432C341.03 47.432 338.886 46.76 337.286 45.416C335.718 44.072 334.934 42.2 334.934 39.8C334.934 38.872 335.014 38.056 335.174 37.352L336.902 28.76H333.062L334.454 21.944H338.246L339.59 15.176H348.71L347.366 21.944H353.27L351.926 28.76H346.022L344.294 37.304ZM387.044 20.984L381.86 47H373.22L373.748 44.552C371.668 46.472 369.156 47.432 366.212 47.432C364.292 47.432 362.484 46.968 360.788 46.04C359.124 45.08 357.78 43.704 356.756 41.912C355.732 40.12 355.22 38.008 355.22 35.576C355.22 32.76 355.844 30.216 357.092 27.944C358.372 25.64 360.084 23.832 362.228 22.52C364.404 21.208 366.772 20.552 369.332 20.552C373.108 20.552 375.764 21.736 377.3 24.104L377.924 20.984H387.044ZM369.38 40.088C371.204 40.088 372.692 39.416 373.844 38.072C374.996 36.728 375.572 34.984 375.572 32.84C375.572 31.304 375.124 30.088 374.228 29.192C373.364 28.296 372.164 27.848 370.628 27.848C368.804 27.848 367.316 28.52 366.164 29.864C365.012 31.208 364.436 32.968 364.436 35.144C364.436 36.68 364.868 37.896 365.732 38.792C366.628 39.656 367.844 40.088 369.38 40.088ZM396.275 11.384H405.395L398.291 47H389.171L396.275 11.384ZM431.243 47.432C429.003 47.432 426.843 47.192 424.763 46.712C422.715 46.232 421.115 45.624 419.963 44.888L423.275 38.504C424.459 39.24 425.867 39.832 427.499 40.28C429.131 40.696 430.731 40.904 432.299 40.904C435.083 40.904 436.475 40.28 436.475 39.032C436.475 38.52 436.139 38.152 435.467 37.928C434.827 37.672 433.787 37.432 432.347 37.208C430.427 36.856 428.843 36.488 427.595 36.104C426.379 35.688 425.307 35 424.379 34.04C423.451 33.08 422.987 31.736 422.987 30.008C422.987 27 424.267 24.68 426.827 23.048C429.419 21.384 432.763 20.552 436.859 20.552C438.715 20.552 440.507 20.744 442.235 21.128C443.963 21.48 445.467 21.976 446.747 22.616L443.531 29C441.355 27.688 438.779 27.032 435.803 27.032C434.395 27.032 433.339 27.224 432.635 27.608C431.963 27.96 431.627 28.424 431.627 29C431.627 29.512 431.947 29.896 432.587 30.152C433.259 30.376 434.347 30.632 435.851 30.92C437.707 31.24 439.243 31.608 440.459 32.024C441.707 32.44 442.779 33.128 443.675 34.088C444.603 35.048 445.067 36.36 445.067 38.024C445.067 41.032 443.771 43.352 441.179 44.984C438.587 46.616 435.275 47.432 431.243 47.432ZM481.301 20.984L476.117 47H467.477L468.005 44.312C466.885 45.368 465.621 46.152 464.213 46.664C462.837 47.176 461.413 47.432 459.941 47.432C457.093 47.432 454.821 46.664 453.125 45.128C451.461 43.592 450.629 41.4 450.629 38.552C450.629 37.496 450.741 36.424 450.965 35.336L453.845 20.984H462.965L460.277 34.472C460.149 35.08 460.085 35.672 460.085 36.248C460.085 38.52 461.253 39.656 463.589 39.656C465.157 39.656 466.453 39.176 467.477 38.216C468.501 37.224 469.205 35.768 469.589 33.848L472.181 20.984H481.301ZM504.263 20.552C506.183 20.552 507.975 21.032 509.639 21.992C511.335 22.92 512.695 24.28 513.719 26.072C514.743 27.864 515.255 29.96 515.255 32.36C515.255 35.208 514.615 37.784 513.335 40.088C512.087 42.36 510.375 44.152 508.199 45.464C506.055 46.776 503.703 47.432 501.143 47.432C497.367 47.432 494.711 46.248 493.175 43.88L490.679 56.312H481.559L488.615 20.984H497.255L496.727 23.432C498.807 21.512 501.319 20.552 504.263 20.552ZM499.847 40.088C501.671 40.088 503.159 39.416 504.311 38.072C505.463 36.728 506.039 34.984 506.039 32.84C506.039 31.304 505.591 30.088 504.695 29.192C503.831 28.296 502.631 27.848 501.095 27.848C499.271 27.848 497.783 28.52 496.631 29.864C495.479 31.208 494.903 32.968 494.903 35.144C494.903 36.68 495.335 37.896 496.199 38.792C497.095 39.656 498.311 40.088 499.847 40.088ZM539.078 20.552C540.998 20.552 542.79 21.032 544.454 21.992C546.15 22.92 547.51 24.28 548.534 26.072C549.558 27.864 550.07 29.96 550.07 32.36C550.07 35.208 549.43 37.784 548.15 40.088C546.902 42.36 545.19 44.152 543.014 45.464C540.87 46.776 538.518 47.432 535.958 47.432C532.182 47.432 529.526 46.248 527.99 43.88L525.494 56.312H516.374L523.43 20.984H532.07L531.542 23.432C533.622 21.512 536.134 20.552 539.078 20.552ZM534.662 40.088C536.486 40.088 537.974 39.416 539.126 38.072C540.278 36.728 540.854 34.984 540.854 32.84C540.854 31.304 540.406 30.088 539.51 29.192C538.646 28.296 537.446 27.848 535.91 27.848C534.086 27.848 532.598 28.52 531.446 29.864C530.294 31.208 529.718 32.968 529.718 35.144C529.718 36.68 530.15 37.896 531.014 38.792C531.91 39.656 533.126 40.088 534.662 40.088ZM560.165 11.384H569.285L562.181 47H553.061L560.165 11.384ZM602.14 20.984L585.484 48.152C584.108 50.36 582.78 52.072 581.5 53.288C580.252 54.536 578.924 55.416 577.516 55.928C576.108 56.472 574.46 56.744 572.572 56.744C571.196 56.744 569.836 56.536 568.492 56.12C567.116 55.704 566.028 55.16 565.228 54.488L569.308 48.056C570.46 49.048 571.804 49.544 573.34 49.544C574.172 49.544 574.876 49.352 575.452 48.968C576.028 48.616 576.604 48.024 577.18 47.192L571.276 20.984H580.348L583.612 36.968L593.212 20.984H602.14ZM635.987 13.4L629.267 47H619.763L624.995 20.744H618.755L620.243 13.4H635.987ZM651.264 47.672C647.392 47.672 644.32 46.536 642.048 44.264C639.808 41.96 638.688 38.776 638.688 34.712C638.688 30.616 639.44 26.904 640.944 23.576C642.48 20.216 644.608 17.576 647.328 15.656C650.048 13.704 653.12 12.728 656.544 12.728C660.416 12.728 663.472 13.88 665.712 16.184C667.984 18.456 669.12 21.624 669.12 25.688C669.12 29.784 668.352 33.512 666.816 36.872C665.312 40.2 663.2 42.84 660.48 44.792C657.76 46.712 654.688 47.672 651.264 47.672ZM652.176 39.896C653.712 39.896 655.04 39.144 656.16 37.64C657.28 36.136 658.128 34.296 658.704 32.12C659.28 29.944 659.568 27.88 659.568 25.928C659.568 24.072 659.216 22.712 658.512 21.848C657.84 20.952 656.88 20.504 655.632 20.504C654.096 20.504 652.768 21.256 651.648 22.76C650.528 24.264 649.68 26.104 649.104 28.28C648.528 30.456 648.24 32.52 648.24 34.472C648.24 38.088 649.552 39.896 652.176 39.896ZM675.883 36.632C677.419 36.632 678.651 37.096 679.579 38.024C680.539 38.92 681.019 40.12 681.019 41.624C681.019 42.392 680.875 43.128 680.587 43.832C680.299 44.504 679.787 45.4 679.051 46.52L673.867 54.536H668.155L672.091 46.52C671.451 46.072 670.939 45.496 670.555 44.792C670.203 44.088 670.027 43.304 670.027 42.44C670.027 40.712 670.587 39.32 671.707 38.264C672.859 37.176 674.251 36.632 675.883 36.632ZM715.349 47.672C711.477 47.672 708.405 46.536 706.133 44.264C703.893 41.96 702.773 38.776 702.773 34.712C702.773 30.616 703.525 26.904 705.029 23.576C706.565 20.216 708.693 17.576 711.413 15.656C714.133 13.704 717.205 12.728 720.629 12.728C724.501 12.728 727.557 13.88 729.797 16.184C732.069 18.456 733.205 21.624 733.205 25.688C733.205 29.784 732.437 33.512 730.901 36.872C729.397 40.2 727.285 42.84 724.565 44.792C721.845 46.712 718.773 47.672 715.349 47.672ZM716.261 39.896C717.797 39.896 719.125 39.144 720.245 37.64C721.365 36.136 722.213 34.296 722.789 32.12C723.365 29.944 723.653 27.88 723.653 25.928C723.653 24.072 723.301 22.712 722.597 21.848C721.925 20.952 720.965 20.504 719.717 20.504C718.181 20.504 716.853 21.256 715.733 22.76C714.613 24.264 713.765 26.104 713.189 28.28C712.613 30.456 712.325 32.52 712.325 34.472C712.325 38.088 713.637 39.896 716.261 39.896ZM749.649 47.672C745.777 47.672 742.705 46.536 740.433 44.264C738.193 41.96 737.073 38.776 737.073 34.712C737.073 30.616 737.825 26.904 739.329 23.576C740.865 20.216 742.993 17.576 745.713 15.656C748.433 13.704 751.505 12.728 754.929 12.728C758.801 12.728 761.857 13.88 764.097 16.184C766.369 18.456 767.505 21.624 767.505 25.688C767.505 29.784 766.737 33.512 765.201 36.872C763.697 40.2 761.585 42.84 758.865 44.792C756.145 46.712 753.073 47.672 749.649 47.672ZM750.561 39.896C752.097 39.896 753.425 39.144 754.545 37.64C755.665 36.136 756.513 34.296 757.089 32.12C757.665 29.944 757.953 27.88 757.953 25.928C757.953 24.072 757.601 22.712 756.897 21.848C756.225 20.952 755.265 20.504 754.017 20.504C752.481 20.504 751.153 21.256 750.033 22.76C748.913 24.264 748.065 26.104 747.489 28.28C746.913 30.456 746.625 32.52 746.625 34.472C746.625 38.088 747.937 39.896 750.561 39.896ZM783.948 47.672C780.076 47.672 777.004 46.536 774.732 44.264C772.492 41.96 771.372 38.776 771.372 34.712C771.372 30.616 772.124 26.904 773.628 23.576C775.164 20.216 777.292 17.576 780.012 15.656C782.732 13.704 785.804 12.728 789.228 12.728C793.1 12.728 796.156 13.88 798.396 16.184C800.668 18.456 801.804 21.624 801.804 25.688C801.804 29.784 801.036 33.512 799.5 36.872C797.996 40.2 795.884 42.84 793.164 44.792C790.444 46.712 787.372 47.672 783.948 47.672ZM784.86 39.896C786.396 39.896 787.724 39.144 788.844 37.64C789.964 36.136 790.812 34.296 791.388 32.12C791.964 29.944 792.252 27.88 792.252 25.928C792.252 24.072 791.9 22.712 791.196 21.848C790.524 20.952 789.564 20.504 788.316 20.504C786.78 20.504 785.452 21.256 784.332 22.76C783.212 24.264 782.364 26.104 781.788 28.28C781.212 30.456 780.924 32.52 780.924 34.472C780.924 38.088 782.236 39.896 784.86 39.896Z" fill="white"/>
</svg>
